/* XPM */
static char *_be951afa3fb457eab8c60f784bad6446pggNwsbAk5dQxGC[] = {
/* columns rows colors chars-per-pixel */
"64 64 224 2 ",
"   c #124418",
".  c #194A1E",
"X  c #2C5C1D",
"o  c #1D4D21",
"O  c #204F24",
"+  c #245126",
"@  c #2A542A",
"#  c #315B28",
"$  c #2E5B32",
"%  c #335D33",
"&  c #395D32",
"*  c #386527",
"=  c #396238",
"-  c #4C510F",
";  c #5B5D02",
":  c #585E0B",
">  c #565917",
",  c #5D670E",
"<  c #5B6114",
"1  c #5C6418",
"2  c #4F7C1C",
"3  c #517E1F",
"4  c #656809",
"5  c #646A0B",
"6  c #73730F",
"7  c #616814",
"8  c #6A6B13",
"9  c #656B1B",
"0  c #6D7415",
"q  c #697318",
"w  c #6D731C",
"e  c #767A15",
"r  c #737A1B",
"t  c #555C28",
"y  c #575F35",
"u  c #5B6024",
"i  c #5D6920",
"p  c #446D37",
"a  c #41653D",
"s  c #4E743A",
"d  c #646A25",
"f  c #6B7528",
"g  c #717522",
"h  c #74792C",
"j  c #797D28",
"k  c #666C34",
"l  c #67743B",
"z  c #777536",
"x  c #4A6C43",
"c  c #496B46",
"v  c #596B46",
"b  c #4F734A",
"n  c #57794A",
"m  c #5D7854",
"M  c #636C45",
"N  c #686A48",
"B  c #697646",
"V  c #617A4B",
"C  c #757C4A",
"Z  c #687A51",
"A  c #7B7D53",
"S  c #9D2709",
"D  c #9B250C",
"F  c #932C18",
"G  c #993414",
"H  c #AB2403",
"J  c #A62A06",
"K  c #AD2B01",
"L  c #B42401",
"P  c #B22C02",
"I  c #B72B05",
"U  c #A7330B",
"Y  c #B43000",
"T  c #B63703",
"R  c #BC3302",
"E  c #AC2D12",
"W  c #8F3D25",
"Q  c #993B26",
"!  c #C93702",
"~  c #C33D03",
"^  c #CB3E01",
"/  c #CB3908",
"(  c #98501D",
")  c #AC5005",
"_  c #904E2D",
"`  c #985939",
"'  c #AC4E2D",
"]  c #9C7727",
"[  c #B8702F",
"{  c #CB4301",
"}  c #CB4805",
"|  c #D24404",
" . c #D24C02",
".. c #D94D03",
"X. c #D1450A",
"o. c #D45304",
"O. c #DD5702",
"+. c #DB550C",
"@. c #DD5A0B",
"#. c #CE4E12",
"$. c #E35A01",
"%. c #E25E0A",
"&. c #E15D12",
"*. c #DE6707",
"=. c #DB6B15",
"-. c #D86819",
";. c #D4731A",
":. c #D97619",
">. c #E66605",
",. c #E4630C",
"<. c #E36B0C",
"1. c #EB6B0E",
"2. c #F36D0A",
"3. c #E67308",
"4. c #EB720C",
"5. c #E46B17",
"6. c #E67815",
"7. c #F17416",
"8. c #C85B2D",
"9. c #CC6925",
"0. c #D56B2A",
"q. c #D3762C",
"w. c #CA7C34",
"e. c #E37923",
"r. c #8E5845",
"t. c #97684A",
"y. c #917652",
"u. c #B57C50",
"i. c #78831E",
"p. c #4D8426",
"a. c #548528",
"s. c #5D852C",
"d. c #7C8523",
"f. c #7C8628",
"g. c #668B36",
"h. c #6D933D",
"j. c #638243",
"k. c #69844B",
"l. c #778949",
"z. c #769846",
"x. c #678454",
"c. c #768854",
"v. c #728C5A",
"b. c #7C9956",
"n. c #7B9164",
"m. c #7F9865",
"M. c #848D1C",
"N. c #8F971A",
"B. c #9CA51E",
"V. c #858A26",
"C. c #888E2C",
"Z. c #8B9223",
"A. c #8D9923",
"S. c #8C932B",
"D. c #8A9528",
"F. c #929B24",
"G. c #949E2D",
"H. c #989F2B",
"J. c #878B38",
"K. c #96843D",
"L. c #8A9432",
"P. c #949C33",
"I. c #959C3A",
"U. c #9A9E3D",
"Y. c #A3833C",
"T. c #9BA325",
"R. c #99A328",
"E. c #9AA32C",
"W. c #99A535",
"Q. c #9BA434",
"!. c #9CA33B",
"~. c #A4AB28",
"^. c #ABB72B",
"/. c #A2AA34",
"(. c #A4AB3D",
"). c #A5B134",
"_. c #ADB634",
"`. c #AAB33A",
"'. c #B3BD33",
"]. c #B1BC39",
"[. c #C1803A",
"{. c #BAC438",
"}. c #818B4A",
"|. c #93824C",
" X c #8A954D",
".X c #969C48",
"XX c #999D49",
"oX c #8C8653",
"OX c #938251",
"+X c #899853",
"@X c #989D56",
"#X c #B88748",
"$X c #A58457",
"%X c #B28B56",
"&X c #AA915E",
"*X c #99A448",
"=X c #86A459",
"-X c #98A75A",
";X c #A5AD45",
":X c #A4AA4A",
">X c #AAAF49",
",X c #A9B345",
"<X c #B0B849",
"1X c #A4AB57",
"2X c #ADB557",
"3X c #8B9C6E",
"4X c #8BA46A",
"5X c #98AA67",
"6X c #9CAE6B",
"7X c #A1A666",
"8X c #AAB767",
"9X c #A9BA76",
"0X c #D3904C",
"qX c #B7C44F",
"wX c #B5C153",
"eX c #B8C677",
"rX c #C8D54C",
"tX c #C6D056",
"yX c #D2DC5C",
"uX c #C9D46C",
"iX c #D1DB61",
"pX c #CAD574",
"aX c #D0DA74",
"sX c #D8E162",
/* pixels */
"  p.  p.X X         X 2 2                       p.  p.      X X X             X X p.  p.X X 2     X p.  p.      X   X     2 2   ",
"2   2 X X p.  p.      X X   p.  p.X X p.  p.X 2   2           X X p.  p.      X X   2   2 X       2   2 X         X   X     X X ",
"  2 X X     2   2         2   2 X X 2   2   2   2               2   2                 2             2 X X     p.  p.X     X X X ",
"              2   2     2   2   X X   2       2 X X               2 X X X p.  p.      X X X                     2   2   p.  p.  ",
"X X p.  p.  X   2         2                     X X     p.  p.        X 2   2           X X X   p.  p.X       X X 2   2 X 2   2 ",
"2 X X 2   2   X   2               p.  p.X X X         X X 2   2       2   2 X     p.  p.  X X 2   2 X   X       X X 2       2   ",
"    X X p.  p.          p.  p.      2   2 X     p.  p.X X   2   2 X X   2 X X   X X 2   2   X   2     p.  p.      X X       X 2 ",
"          2       X   X   p.  X     X 2   X   2   2 X X       2   X               X X 2                 2   2         p.  p.X   ",
"  p.        p.  X   X       X   X   X X         2             X X p.  p.            X X       p.  p.      2   X   X 2   2 X   p.",
"2   2 X       X   X   p.  p.  X     p.  p.            p.  p.    2   2     X X X       p.  4X+   p.  X       X   X     2         ",
"  2   X X       X   2   2 X           2   2 X X     2   2 X X X   2     X p.  p.        h.3X=X    X p.  p.X   p.  p.            ",
"      X p.  p.        p.X     X   X     2   2         2     X X X     X X X 2   2     X x.7X4Xb O 2   2     X   2   2   X X X   ",
"p.    2   2       X X X     p.  p.X X   X 2         X X X   p.  p.X   X X     2   2 s * b.2X.X Xc   2             2   2 X X p.  ",
"    p.  p.        X X     2   2   X X       2   X   X X   2   2 X X     p.  p.X 2 o 6X-X+X;XI. Xc * X p.  p.        2   X 2   2 ",
"X X   2       p.  p.    p.  p.X X   p.  p.      X X     2   2         2   2 X   b z.1X<X<X/.P.J.B b X X 2   2       X X     2   ",
"  X p.X         2   2     2 X X       2   2     p.  p.    2             2 X   . 3X-X2X]._.T.S.j Z %   X X 2   2                 ",
"    X X           2     X X X       X X 2     2   2     2   X                   x.1X,X]._.F.C.f b.  p.  X X 2       p.  p.X X   ",
"              X X X     X X           X X X     2         X   X p.  p.  X X X   p @X(.).).Z.0 h m 2   2       2       2   2 X X ",
"  p.  p.        X X X   p.  p.          X X                 X     2   2 X X     p.v.:XW.W.D.w > v.X 2                   2   X X ",
"2   2 X X X p.  p.X X X   2   2           p.  p.  X X X             2   X     2   z.-X!.P.d.w u n X X       X p.  p.X   X       ",
"  p.X X X 2   2     p.  p.  p.  p.      2   2   X X X p.  p.        X X     2   2 n.*X!.P.r 9 B a.  p.    X 2   2     X   X     ",
"  X X X p.  p.        2   2   2     X 2   2   X X X     2   2       p.  p.    2 X n.XX!.S.0 < l % 2   2 X X   2         X   X   ",
"p.X X     2 X X X       p.  X X X       2 X   X X         2   2   2   2   X 2 X   -X:XW.Z.4 : t b   2   2 X       p.  p.  X p.  ",
"          X X p.  p.      X X X         X X X     p.  p.    2   X   2     X X   % -X!.W.i., 1 l.* X   2         2   2     2   2 ",
"  p.  p.  X X   2   2   X X X         p.  p.X       2   2 X X X                 p 1XW.Z.r 9 l $ 2     + h.* m.6X. 2     2   2   ",
"X X 2   2         p.  p.X X p.  p.X 2   2             2   X X   X p.  p.  p.  =X7X>X(.S.w - k s.  m = 9XpXeX8X6Xa.X   X   2   X ",
"X X X p.            2     2   2 X X   2                 X X   X 2   2   X X 2 n.1X;XP.0 7 u k.  @ eX8XuXtXwX8X=XX   X           ",
"  X X X             X X p.  p.X X       X X X p.  p.          X   2   X X X   6X2X(.S.8 1 k.    k.uXiXrX].(.b.#   X   p.  p.    ",
"  p.  p.      p.  p.  X   2     p.  p.X X X 2   2   X X X             X X   m.2X>XW.r 8 : b.a.5XaXyXrX^.~.qXp   X       2   2   ",
"    2   2   X X 2   2   X X X     2   2 X 2   2       X p.p.    X X     p.. 8X;X(.Z.8 ; V.uX-XaXyX'.^.^.).P.+X%       X X 2   2 ",
"      p.  p.X X   p.      p.  p.    2       2                   X     2   9X2X`.H.e 4 e tXyXiXtX_.{.{.^.G.*Xn.@ p.  p.X X   2   ",
"        2   X           2   2                 X X X       2   2     2   g.5X;XR.M.6 ; Z.sXrX{.^.{.'.B.T.L.j.2 X X 2   2       2 ",
"  p.    X X   p.  p.X X   2   X X X         X X p.  p.      2   2     2 5X*XE.A.e 4 ; M.qX_.{.{._.T.F.Z.C.}.a   X X 3     X   X ",
"2   2       2   2 X X       X X X p.  p.  X X 2   2           2     2   +XP.F.e 4 8 V.;X(.].'.^.T.E.N.L.j.5Xb p.  X X   X   X   ",
"  2       p.  p.X X         X X     2   2 X X   2     p.  p.    3 X X X +XI.i.8 : 8 :X;X;X).^.~.~.~./.!.-Xn 2         X p.  p.  ",
"  X X X     2 X X       p.  p.        2   2         2   3 @ A %Xu.7X* x. Xj 4 4 4 r U.P.W.R.N.B.~.~.`.!.XX-XX X       2   2     ",
"    X X X p.          2   2     X X X   2         2   s.oXu.9.0.9.[ Y.K.J.0 4 4 L.I.!.!.W.W.R.~.B.T.E.!.:X*X-Xv.+   2   2       ",
"  p.  p.X X   X X X p.  p.X       X X X   2       . @X#X0.5.5.%.,.) ) ] w q g f.C.C.C.C.V.Z.G.A.T.E./.W.P.!.*XJ.x..   2   X   X ",
"X   2   2 X   p.X     2 X   X   p.  p.X X       B 0X;.5.7.1.$.$.O.o.) ( z n c.f f g 9 g 8 r i.i.M.F.W.!.!.E.A.I. Xc.v.X     X   ",
"X     p.  p.        p.    X       2   2 X   & $Xw.6.4.2.2.2.>.$...{ T ( Z X . V k k k > z > i f r r C.I.P.E.A.M.f.z v.  X p.  p.",
"        2       X   X   p.  p.      p.    C w.:.6.6.<.<.1.,.@. .{ R U t.p.    $ a x = V z.M c.V d h g f.S.S.V.d.f.l.x.a.X   2   ",
"X     X   p.  X   X       2   2   X X s $Xq.6.3.3.3.*.,.@.o.} { R K G |.  2               a.+ 3 n l d h j d.d.0 q f M b     X 2 ",
"  p.X   X   X   X           p.  X X oX[ :.6.4.*.>.7.%. .+.} T P K J _ % 2     X X X         2     n c.f 9 q 4 4 , 1 V     X   X ",
"2   2 X     p.  p.  p.  p.      # &Xw.:.6.3.>.7.O.O...X.~ P K P S W M           X p.  p.X   X       3 C d < , f < > Z   X   X   ",
"  2       2   2       2   2 X + #X:.;.e.=.*.1.$.o.^ ^ / L I I D W N X           2   2 X   X   X       l.u < > V k.t y $ p.X     ",
"  X X X p.  p.          p.  z.#X:.3.<.=.5.-.o. .{ ^ ! L I J S Q N X p.  p.    2   2 X X     X   X   2 x.t l.> n p.c m g.  2     ",
"    X X   2     X X X     XX[.;.3.4.1.%.+. .{ ~ R I L H E F ` v p.    2   2     2             X       % M h.n g.        2   X   ",
"p.p.  X X X   X X X     OXw.;.6.1.,.O... .~ Y P P H E D F y.@ 2         2   2         X   X p.  p.      b . 2         X X X   p.",
"2       p.  p.      . |.q.=.*.,.&.+.{ ~ R Y K K J D F r.}.  2 X X X       2         X   X 2   2 X X                         2   ",
"    X 2   2       a.%X9.=.<.1. .X.~ R P Y K J U G _ N #   2     p.  p.      2         X 2   2   p.  p.    p.  p.      X   2   2 ",
"        2 X     a.u.0.5.%.....X.R I I L H D Q ` M .     X X X 2   2 X   X     X   X       2   2   2 X   2   2       X   X   2   ",
"        X X X p.$X8.#.+.| | R H E J S D Q r.B   X   p.  p.X X   2 X   X p.  p.  X   X           2     2   2 X p.  p.  X         ",
"X p.  p.  X X y.' 8.#.^ ~ P E D D W t.N $     X   X   2   2         X 2   2       X p.  p.  X X X       2 X     2   2       X X ",
"    2   2   a t.' ' U U G ( ` y.M @     X X p.  p.X     2   2       2   2 X         X 2   2 X X       2 X         2   2   p.  p.",
"2   X 2   s.b x v v v x g.* X         X X 2   2           2   X X     2 X   X           2   2       X         X X X 2   X   2   ",
"      X 2     p.  p.X   X X           X 2   2             X   X           X   p.  p.      2           p.  p.    X X X     X   2 ",
"        X X   X 2   2     p.  p.          2       p.  p.X   X p.  p.X       2   2   X   X   2           2   2     X p.  p.      ",
"p.  p.        X X 2     2   2   X X X   2       2   2     X 2   2 X   X   2   2       X X                 2       2   2         ",
"  2                   2   2         X X       2   2 X         2     X       2         p.  p.      p.  p.        2   2   X X p.  ",
"          p.  p.        2         p.  p.        2 X                           X   X 2   2       2   2       X X   2       2   2 ",
"X       2   2         2 X X         2   2   X X X               p.  p.      X   X     2       2   2       X   X     X X X   2   ",
"      2   2             X p.  p.    X 2   2 X X     X p.  p.      2   2       X                 2       X   p.  p.      X X   X ",
"        2         p.  p.  X 2   2 X X X 2         X X X 2   2       2   2         X X X p.  p.X X         X   2   2   p.  p.    ",
"      2           X 2   2   X 2   X X             X X     2   X       2         p.  p.    2   2       p.  p.  X 2       2   2   "
};
