/* XPM */
static char *_0c234f3ac7a499af85eb679d6deab64mpAlUzOveqngUz6Y[] = {
/* columns rows colors chars-per-pixel */
"64 64 236 2 ",
"   c #1D1B1A",
".  c #231E19",
"X  c #25221D",
"o  c #2C251E",
"O  c #262524",
"+  c #2A2623",
"@  c #2C2926",
"#  c #2C2B2A",
"$  c #3A2620",
"%  c #332B25",
"&  c #3B2D25",
"*  c #322E2A",
"=  c #392F29",
"-  c #34312D",
";  c #3C332C",
":  c #353532",
">  c #3B3632",
",  c #3C3935",
"<  c #393738",
"1  c #3D3C3A",
"2  c #43352D",
"3  c #47382F",
"4  c #5C3E24",
"5  c #423732",
"6  c #443B34",
"7  c #4A3C36",
"8  c #4C3C34",
"9  c #433D3A",
"0  c #503E37",
"q  c #523F39",
"w  c #124418",
"e  c #19491E",
"r  c #2C5C1D",
"t  c #1B4B21",
"y  c #285429",
"u  c #364C36",
"i  c #345C37",
"p  c #376428",
"a  c #39613C",
"s  c #4F7C1C",
"d  c #507D1E",
"f  c #4C4135",
"g  c #45413D",
"h  c #4C433C",
"j  c #4B463C",
"k  c #514236",
"l  c #54443C",
"z  c #59463F",
"x  c #53493E",
"c  c #5A493C",
"v  c #6C5035",
"b  c #4B7434",
"n  c #3E3E40",
"m  c #3D6441",
"M  c #454441",
"N  c #4A4542",
"B  c #4D4945",
"V  c #474749",
"C  c #4D4D49",
"Z  c #514740",
"A  c #5B4741",
"S  c #544C44",
"D  c #5B4C43",
"F  c #544D49",
"G  c #5A4F49",
"H  c #4F504B",
"J  c #5C5246",
"K  c #55524B",
"L  c #585348",
"P  c #5B534C",
"I  c #5D5551",
"U  c #5D5A53",
"Y  c #585954",
"T  c #614D46",
"R  c #615244",
"E  c #63544B",
"W  c #67594D",
"Q  c #6B5A4D",
"!  c #725E49",
"~  c #615651",
"^  c #645A54",
"/  c #6B5D54",
"(  c #655E5A",
")  c #6A5E59",
"_  c #705E56",
"`  c #466948",
"'  c #507541",
"]  c #506E52",
"[  c #587759",
"{  c #6C6155",
"}  c #63635C",
"|  c #686359",
" . c #6C625C",
".. c #736454",
"X. c #72645C",
"o. c #736A5D",
"O. c #7A6B5E",
"+. c #72705A",
"@. c #6C6562",
"#. c #6A6965",
"$. c #736662",
"%. c #746B64",
"&. c #7A6C64",
"*. c #746D6A",
"=. c #796D68",
"-. c #7A7467",
";. c #74716C",
":. c #7B736B",
">. c #6E7371",
",. c #737473",
"<. c #797673",
"1. c #797A76",
"2. c #7B7D7B",
"3. c #856E5A",
"4. c #87725B",
"5. c #937351",
"6. c #A07E58",
"7. c #847464",
"8. c #8B7863",
"9. c #82756C",
"0. c #85796D",
"q. c #8A7D6D",
"w. c #937C66",
"e. c #837974",
"r. c #847B74",
"t. c #8B7D73",
"y. c #827E7A",
"u. c #4D8426",
"i. c #57842A",
"p. c #658A38",
"a. c #5D8252",
"s. c #70914E",
"d. c #688568",
"f. c #788D6E",
"g. c #798575",
"h. c #839F5E",
"j. c #97846E",
"k. c #8C8175",
"l. c #858678",
"z. c #8C837A",
"x. c #978777",
"c. c #92857C",
"v. c #95897D",
"b. c #85977B",
"n. c #A78B6B",
"m. c #AA8E71",
"M. c #A99478",
"N. c #B69B7B",
"B. c #89A768",
"V. c #97B57D",
"C. c #C09E7B",
"Z. c #C4A27D",
"A. c #7F9981",
"S. c #8A8684",
"D. c #948B83",
"F. c #9A8D83",
"G. c #948D89",
"H. c #998E8A",
"J. c #899A86",
"K. c #9B9587",
"L. c #94928C",
"P. c #9C948B",
"I. c #8F8F91",
"U. c #8D9292",
"Y. c #949493",
"T. c #989993",
"R. c #9A9C9B",
"E. c #A69787",
"W. c #A4968C",
"Q. c #B39D84",
"!. c #A49C94",
"~. c #A79D96",
"^. c #8CA488",
"/. c #94A487",
"(. c #9BA495",
"). c #B9A48A",
"_. c #AEA296",
"`. c #A6A699",
"'. c #ACA49C",
"]. c #B2A49B",
"[. c #B7A898",
"{. c #A9B891",
"}. c #999EA1",
"|. c #9DA2A3",
" X c #A9A7A4",
".X c #B3ACA3",
"XX c #B9ADA5",
"oX c #ABB6A6",
"OX c #BBB1A4",
"+X c #B4B6AA",
"@X c #BCB4AB",
"#X c #BDBAAE",
"$X c #BCBAB5",
"%X c #C7AB89",
"&X c #C0AC93",
"*X c #C9B599",
"=X c #D8BB98",
"-X c #C5B8A9",
";X c #D0BEA4",
":X c #C3BBB3",
">X c #C6BCB5",
",X c #B8C49E",
"<X c #B9C1A9",
"1X c #D9C19F",
"2X c #C6C5AC",
"3X c #D5C1A4",
"4X c #D8C5A9",
"5X c #DCC9AC",
"6X c #C9C5B8",
"7X c #CBC4BC",
"8X c #D6C9B8",
"9X c #CAD4B9",
"0X c #D9D2B9",
"qX c #E2C5A3",
"wX c #E4CFB0",
"eX c #E7D6BA",
"rX c #EAD6BA",
"tX c #F1DEBD",
"yX c #CDC6C0",
"uX c #CEC9C4",
"iX c #D4CDC4",
"pX c #D9D7C7",
"aX c #DBD4CB",
"sX c #DDD9D2",
"dX c #E9DAC6",
"fX c #F0DFC5",
"gX c #E3DCD5",
"hX c #DCE1CC",
"jX c #FCE9CA",
"kX c #E6E2D4",
"lX c #ECE5DB",
"zX c #F7EED2",
"xX c #F4E9D8",
"cX c #EFEAE4",
"vX c #F3ECE2",
"bX c #FAF4EB",
/* pixels */
"w u.w u.r r w w w w r s s w w w w w w w w w w w u.w u.w w w r r r w w w w w w r r u.w u.r r s w w r u.w u.w w w r w r w w s s w ",
"s w s r r u.w u.w w w r r w u.w u.r r u.w u.r s w s w w w w w r r u.w u.w w w r r w s w s r w w w s w s r w w w w r w r w w r r ",
"w s r r w w s w s w w w w s w s r r s w s w s w s w w w w w w w s w d w w w w w w w w s w w w w w w s r r w w u.w u.r w w r r r ",
"w w w w w w w s w s w w s w s w r r w s w w w s r r w w w w w w w s r r r u.w u.w w w r r r w w w w w w w w w w s w s w u.w u.w ",
"r r u.w u.w r w s w w w w s w w w w w w w w w w r r w w u.w u.w w w w r s a p.w w w w w r r r w u.w u.r w w w r r s w s r s w s ",
"s r r s w s w r w s w w w w w w w u.w u.r r r w w w w r r s w s w w w s t l.1.g.w u.w u.w r r s w s r w r w w w r r s w w w s w ",
"w w r r u.w u.w w w w w u.w u.` [ ` p.[ s.' w w u.w u.r r w s w s b d.g.h.*.=.L.r r s w s w r w s w w u.w u.w w w r r w w w r s ",
"w w w w w s w w w r w r w s.d.k.l.D.D.l.1.+.t s w s r r w w w s [ -.r.o.<.%.-.l.w r r s w w w w w w w w s w s w w w w u.w u.r w ",
"w u.w w w w u.w r w r w g.q.t.7.D.D.v.H.P.b.y w i.i t w e ` [ b.K.t.t.c.9.9.k.l.b.a r r w w w u.w u.w w w s w r w r s w s r w u.",
"s w s r w w w r w r y K.v.0.7.O.0.0.v.P.H.P.`.[ (.~.'.+X#XT.:.r.z.c.F.F.c.t.7.t.t.K.J.s.w u.w w u.w r w w w r w r w w s w w w w ",
"w s w r r w w w r [ _.~.v.j.Q R 7.O.7.k.v.v.W._.k.-.D.c.z.H.r.z.c.K.F.F.E.E.F.t.7.z.D.T.{.e s w w r u.w u.r w u.w u.w w w w w w ",
"w w w r u.w u.i l.[.~.E.x.j...Q ../ o.&.k.k.v.v.D.t.W.v.0.z.z.F.D.W._.]._.[.OXK.r.r.D..X$X.XJ.i w s w s w w r w s w s w r r r w ",
"u.w w s w s f.E.[.[.[.x.q.7.{ R / W Q / O.O.q.c.0.t.H.:.W { { / W { %.7.z.W.].K.9.0.~..X~.T.S. X Xd.s w w w w w w s w s r r u.w ",
"w w u.w u.l._.[.Q.).*XE.j.7...c E E z z D E ..W E D T D k 8 8 D G P f j / X.X.X./ |  .<.y.y.#.,.2.Y. XB.w u.w w w w s w r s w s ",
"r r w s d.`.4X*X&X).).M.7...R f 8 T 0 8 & 0 W k 0 z D 0 8 k 8 2 6 j Z j S l 8 G A P P *.y.;.*.<.<.2.2.2.T.T.s w w w r r w w s w ",
"w r u.' b.8XdX*X).Q.M.M.7.Q R c D W 3 8 $ 2 E z z k x 8 8 k 8 x h 9 j j h j h S Z N $.@.@.#.#.;.U @.1.S.I.R.U.s w w w w w w w w ",
"w w b /.-XeX5X3X).M.n.x.8.Q c c k / k 8 $ & A A z q 0 8 8 8 8 x 6 5 f j Z S I S f B I / ^ ^ ( ^ ( ( <.I.Y.Y.|.[ w w u.w u.r r w ",
"w t f.`.8XeXtX5XN.m.w.j.j...c k z / A 8 $ & A T 0 3 l z 0 0 8 x A h f 6 g F P g 9 S K Z 9 h S G F F #.S. X XU.S.t w w s w s r r ",
"w V.#XpXeX5XwX5XQ.M.w.w.q...c k J E D 0 3 3 A T 8 8 A D k 0 f l S j f g ; 9 g - , 9 6 5 6 Z Z h N I #.,.Y. X|.}.J.w w w s w r r ",
"s d.2X0X0X3X=XqX).M.4.3.3.R k 3 D x A k D z D T 0 q z k 8 8 8 l j 6 j S > - - % ; ; % * f Z h 6 = I y.S.R.R.U.R.|.u.r w r w w w ",
"w V.<X0XrX=X%XqX*Xm.8.7.7.Q R f k f x 8 D E E T 0 A k 2 8 k 8 f 6 6 S ~ f 5 > 5 ; ; % % ; ; 2 f S ~ <.S.!.R.Y.R.R.d.w r w r w w ",
"w b.2XdXfX=XN.qXN.w.8.7.O.E J f f S G 6 8 T W T z D x 3 8 k 6 8 6 f Z Z 6 9 9 > ; > ; ; ; ; 6 A l Z ) *.S.Y.Y.Y. X`.w w r w r w ",
"u./.0X4X3X=X%X=Xn.4.w.7.O.J S S x L S j f D E R T D A 0 8 8 6 8 6 f f ; , > > ; ; ; ; 5 5 6 f x l x X. .:.y.G.Y.`. XJ.u.w r u.w ",
"w ^.pX0X=X=X%X=Xn.4.w...{ S f S j j f L G D D E D 8 x x 2 2 8 8 7 g g , 9 ; ; , ; ; ; ; % ; 6 8 3 6 )  .;.;.y.y.L. X~.] w s w s ",
"w 9XkXeXqX=X%XZ.5.3.....W -.P j j j 6 x P / E D c k 0 l 8 2 ; ; 6 g , , N 9 * - % - ; = = ; 6 8 2 k X.:.:.=.<.;.y.~.<.$Xu.w s w ",
"r 9XxXrXqX=X=XC.v ! O.0.&.9.~ S j S P  ./ S f c D f 2 8 6 8 5 5 > , > , g > + + * % % % % ; 2 2 8 l X.9.:.-.e.e.L.'.S. Xa s w r ",
"r 9XxXrXqX=X=X6.4 v 7.c.r.:.P S j g j x j ; 2 f D 8 & 2 = ; ; ; * * * - > - * * * * % % % = ; 2 8 k E %.*.;.-.:.:.P.:XuXi w w w ",
"w 9XxXrXqXZ.N.v v v &.9.:.*.P x j 9 j 6 j f l 8 8 3 ; ; % % % % - * - : - * * * % * * % % % = 2 8 x D )  .%.@.$.*.z.XXuXm u.w w ",
"w pXxXrX1Xn.5.v 4.Q / | *.%.P j g g S g Z j l ; ; ; ; ; % % % % * # - 1 : - - @ @ @ * % + o % = f W {  .)  . .*.-.D.'.7XB.w s w ",
"w pXfXrXqXm.6.5.M.! c ;.l.| S j B g F Z S j A 6 & & % = + % @ @ # @ # : - - : * * * * * % % % % A /  .|  .( ^ @.9.'. X.X(.s w s ",
"w sXdXwXwX=XZ.m.).7.P r.z.^ j 6 , > S L L j f & ; ; % % o @ @ @ : # # # # @ # @ - * * - * * ; ; P / / ) *.( I | %.z.G.G.$X] s w ",
"w sXdX5XqXqX=X%X*X).o.%. .U L % @ > F P S f 6 % ; ; ; ; + @ * * # @ # # # # O O + @ * * % % ; 6 | X.$.%.e.@.^ *.9.:.D.G.L.(.w s ",
"w kXdXfX=XM.4X).%X3Xq.o.K } j g > g F N 9 % % ; - 6 9 ; @ @ # @ # + O # O @ @ # @ @ @ + * , - S ^ E / ) *.@.%.%.t.H.G.P.L.(.w r ",
"s sX8XdXjX*XN.m.%X).8.-.^ Y j F C M N g 9 - * * - , g , - # @ O O O O # # # # # # @ * * * , , U A 5 2 7 ) %.:.=.9.H.~.P.S.T.p w ",
"w kX0XeXjXjX3X*X4XM.3.0.;.@.S K K C C g 1 - * % + - > - @ @ @ @ O O O # @ @ # # * @ * - * - > F ; 2 8 G $.:.%. .$.t.~.~.T.T.i.w ",
"w pX8X3XtXzXjXwXwXN.j.o.} *.} K C C C 9 - * * @ o % - @ @ * * # O O O O O O O O # O * - @ * * 6 2 l E )  .$. . .&.9.H.~.~.`.y w ",
"w pX;X*XrXjXjXtX5Xn.8.| #.#.#.U Y g , : # # * + . + * @ @ - * +     O # # @ O O # @ @ * + > 9 g f E / | ^ $.X. .&.9.:.y.z.L.i w ",
"w hX4X&XwXrXzXjX4Xj.O.o.2.>.#.} Y < - g 1 - @ +   X X X + - : # # # # # # # - : : - @ @ + , B S Z / )  .I @.) ^ &.9.:.e.S.T.` r ",
"r 9X4X*XwXrXtX5X&Xj.k.*.S.2.#.Y N : < C g - @ @ O X X X @ > 9 9 g 1 : # # # < 1 , , * * @ , B P P X.~ P g ^ / / X.&.=.e.G.R.a.w ",
"r 2X;X;X4X3X;X5X*X8...:.R.g.} H g : < M : : - * @ O X @ * : , 1 M 1 , : : : < , > , > , - > N P ~ { G F h $.X.) %.$.=.-.y.!.] u.",
"w oX_.3XrX*X*X5X[.8.-.y.U.>.#.C Y g : @ - : @ * - + X * > - > 9 9 : 1 , - 1 u 1 1 , , > - > - P P ^ ~ S ^ e.~ $.X./ &.=.S. Xs.w ",
"r /./.*X*X*X5X*Xj.3.o.1.U.1.,.Y } I B - - > * * + @ * * > , 9 6 , # < , < 1 1 1 > , 9 , * : > ^  .~ ~ P ) $.) &._ / &.%.e..Xa.s ",
"w B.f.4X4X;X-X-X3.7.{ :.S.1.;.U U I F g g B g 9 * > , > > 6 9 6 9 < , 1 1 1 < < > , M 9 * - , F S S G P ) $.9.&._ Q X.X.:.@X] r ",
"s ` p.fXfXdX2XE.Q 7. .2.2.1.@.} ^ P S S K K B B N g 9 9 , > > 9 1 1 1 1 1 1 < 1 1 1 g , - > : > = 6 5 5 q $.9./ Q E E { -. Xd.w ",
"w s.y 0XxXxX-XO...k.r.2.>.1.} } | ^ L S L S S F F 9 , 9 , > > g 9 M g 1 1 < , u g g M , : , : % > f 5 ; G 9.&./ R Q D / =.T.f.w ",
"w p p _.dXxXOXO...q.z.;.} >.} } /  ./ P L S F B B g , , 6 6 9 9 g C M 1 < : < 1 9 M B > > , 1 > N S g = / &.X.D T _ W E  .G.f.w ",
"w w r p b.xXkXv.R ..e.<.>.>.;.o.&.-.X.^ E G S g N N g 9 6 9 9 9 9 g 1 1 1 1 g g 1 B B > , : 9 9 g g ; 5 ) ) $./ t.t.t.X. .G.b.w ",
"u.u.w r r xXxX:Xv.q.z.z.2.,.G.D.z.7.^ E ^ P P S N g g g , > , g g g , 1 M 1 M 1 1 B B > 1 - > > > 2 8 c.XXW.].[.iX-X>XP.r.~.d.u.",
"s w w w u.aXlXkXaXOX@X~.~.'.].:X>XXX-.^ P G P L F N 9 B > > 1 9 9 M 9 1 < 1 n V 1 C B > , @ . 5 2 3 &.OX-X>X-XOX-XW._.W.'.+Xp.w ",
"w w r s w s sXgXkXlXgXOX].].XX~.:XgX@XP ) P P P S F B g , g 1 1 g 9 9 9 < 1 < < 1 1 9 , , o o & & Q XX8X-X_.~.F.-X_.K.XXoXh.w s ",
"w w w w s r #XsXaXkXaX].~.K.].:X:XlXgXD.I ^ U P L K K B g , , , 9 f 9 6 > g 1 M N g 9 N :.=.P { 9.[.OX>X-XE.v.O.t._.@X#Xa.w s w ",
"w w w w r r r u.b.pX7X@XXX_.W.>X7XlXvXiX| ^ U L P P g j ( 9 , j 6 ; 5 Z g B B 9 N D.%.:.K.'.@X:X7X@XP._.@XW.-.~.k.z.:Xf.w w w w ",
"r u.w u.w r r w s y J.yX#X:X'.@XiXlXvXvX:X.X].P.@X.Xz.:. Xe.g 6 5 6 %.'.P.`.#XP.l.].@X@XOX6XOX-X@X@X]..X7X~.t.k.D.-.+Xe w w r r ",
"w w s w s w w w w w w h.T.#X7X@XyXgXlXbXbXvXbXvXlXaXaX@XiX#X%.S J o.K.6X7X6X7X.XD.~..X.X-XOX@X7X.XyX<X/./.J.`.S. X.XJ.s w u.w u.",
"s w r s w s w w w w w w s p b (.>XiXaXlX7X:XiXkXvX7X>X~.'.>X6XiX:X6X7X:X>X#X.XL.~.aXbX6X~.r.k.'.7X^.r w w w w p p y s w r w s w ",
"w w w r s w w u.w u.r w r r w t i J.gXsXiXaXaXsXgXaX'.P.XX`.@XlX6X#XlX:X`.#XgXuX7XB.w oX6XD..X@XoXw w u.w u.w w r r r w w r w s ",
"w w w w r r w r s w s w w u.w u.w e [ d.] s.oXgXsXuX@XT.P.~.iXhXcXgX' bX+X$X9Xe d w r w p ] s.y w w w w s w s w w r u.w u.w w w ",
"u.w u.w w w w r r s w w s w s w r r r w s w e d.,XuX+X.X.X>X,Xw s r w r A.{.w s w w w r r w w w w w w w w s w w w s w s w w w w ",
"w s w w w w w w w w w s w s w w w w r r w w w d y {.$X>XuXd.w s w w r w w w s w w w w u.w u.w w w u.w u.w w w w s w s w r r u.w ",
"w w w w w u.w u.w w w w s w w w w u.w u.w w w w s p d.$Xa w w w w w w w w w w r w r s w s w w w s w s w w w r r w s w w w s w s ",
"r w w w s w s w w w w s r r w w w w s w s w r r r w w e w w w w u.w u.w w w r w r w w s w w w s w s w w w r w r w w r r r w s w ",
"w w w s w s w w w w w w r u.w u.w w r s w s r r w w r u.w u.w w w s w s w w w r w w w w w w w w s w w w r w u.w u.w w w r r w r ",
"w w w w s w w w w u.w u.w r s w s r r r s w w w w r r r s w s w w w s w s w w w w r r r u.w u.r r w w w w r w s w s w u.w u.w w ",
"w w w s w w w w w r s w s w r s w r r w w w w w w r r w w s w r w w w s w w w w u.w u.w w s w s w w w u.w u.w r s w w w s w s w "
};
