/* XPM */
static char *b4df12ce97ba431d9b2851304f8e0e8c0MJmlDtrOBndj20z[] = {
/* columns rows colors chars-per-pixel */
"64 64 236 2 ",
"   c #553D1A",
".  c #583E0D",
"X  c #583E23",
"o  c #564114",
"O  c #5B4515",
"+  c #5C4913",
"@  c #5B451C",
"#  c #5D4B1C",
"$  c #54431C",
"%  c #5E531B",
"&  c #634D13",
"*  c #624C1C",
"=  c #664919",
"-  c #64511D",
";  c #6C561D",
":  c #70551A",
">  c #694916",
",  c #5C4423",
"<  c #5D4B23",
"1  c #5E5124",
"2  c #634C23",
"3  c #644C2A",
"4  c #644823",
"5  c #645224",
"6  c #645229",
"7  c #6B5223",
"8  c #755C23",
"9  c #7C5D25",
"0  c #765A2A",
"q  c #795933",
"w  c #7B6324",
"e  c #7C622E",
"r  c #7B6526",
"t  c #7E6530",
"y  c #98751D",
"u  c #946A1E",
"i  c #866C2B",
"p  c #856629",
"a  c #956C22",
"s  c #8B722C",
"d  c #877024",
"f  c #9C7523",
"g  c #9D7A25",
"h  c #94752D",
"j  c #9C752C",
"k  c #9E7B2D",
"l  c #957828",
"z  c #8B6D33",
"x  c #846732",
"c  c #8B7133",
"v  c #937434",
"b  c #9C7333",
"n  c #9E7B32",
"m  c #9D7E3B",
"M  c #947839",
"N  c #A17A24",
"B  c #A27C2B",
"V  c #A87D2F",
"C  c #A37632",
"Z  c #A27D34",
"A  c #A37E39",
"S  c #AA7B39",
"D  c #AB7B33",
"F  c #A87E42",
"G  c #9F802E",
"H  c #9E8234",
"J  c #9D823C",
"K  c #A2812D",
"L  c #A78327",
"P  c #A48134",
"I  c #AB8435",
"U  c #A5823B",
"Y  c #AB843B",
"T  c #AD8A3B",
"R  c #A78936",
"E  c #B28C3B",
"W  c #B78A3A",
"Q  c #B4923C",
"!  c #BC953D",
"~  c #BD9A3C",
"^  c #B79636",
"/  c #B8942C",
"(  c #BDA03A",
")  c #C19535",
"_  c #C2953D",
"`  c #C39A3C",
"'  c #C99C3C",
"]  c #C59735",
"[  c #C09430",
"{  c #C3A03C",
"}  c #CAA73F",
"|  c #9D874D",
" . c #AC8B44",
".. c #AB8B4A",
"X. c #B48E42",
"o. c #B68E49",
"O. c #AC9148",
"+. c #B59242",
"@. c #BD9542",
"#. c #BE9A43",
"$. c #B3934A",
"%. c #BD964A",
"&. c #BE9A4A",
"*. c #A79258",
"=. c #B49253",
"-. c #BB9B51",
";. c #A28953",
":. c #BCA24B",
">. c #BBA25F",
",. c #B39D66",
"<. c #BAA269",
"1. c #B8A876",
"2. c #C29644",
"3. c #C39A44",
"4. c #C89B45",
"5. c #C3964A",
"6. c #C9954B",
"7. c #C49B4A",
"8. c #C99C4A",
"9. c #C39A51",
"0. c #C99D54",
"q. c #C69553",
"w. c #C18F46",
"e. c #C5A144",
"r. c #C9A244",
"t. c #C5A14B",
"y. c #CAA34B",
"u. c #CDAA4C",
"i. c #D3A94B",
"p. c #C6A051",
"a. c #CBA454",
"s. c #CFAB54",
"d. c #C7A55E",
"f. c #D2AC53",
"g. c #D8AF57",
"h. c #DDB656",
"j. c #D9B459",
"k. c #E2B95F",
"l. c #E2BA59",
"z. c #CDAB64",
"x. c #C8A865",
"c. c #C7B16D",
"v. c #C8AD7C",
"b. c #C8B377",
"n. c #D0B576",
"m. c #D0AB67",
"M. c #E4BC61",
"N. c #E8BB68",
"B. c #E6CB5D",
"V. c #F6D15F",
"C. c #EAC366",
"Z. c #F2C86C",
"A. c #FBD46D",
"S. c #FBD76A",
"D. c #E7C278",
"F. c #F5CC74",
"G. c #FCD573",
"H. c #FED975",
"J. c #FED77B",
"K. c #FFDA7A",
"L. c #F7DB7A",
"P. c #C1AB84",
"I. c #CDB688",
"U. c #D5B888",
"Y. c #CCBF9D",
"T. c #C4B292",
"R. c #D8BD96",
"E. c #E0BF8A",
"W. c #CCBCA2",
"Q. c #D9C795",
"!. c #D0C088",
"~. c #FDD789",
"^. c #F9DB93",
"/. c #FDE490",
"(. c #D7C8A7",
"). c #DACBB3",
"_. c #DDD4B9",
"`. c #E0CEA8",
"'. c #E6D6B9",
"]. c #E8CFB1",
"[. c #F9E8BA",
"{. c #DDD4C1",
"}. c #EBDDC4",
"|. c #E4D8C8",
" X c #E2DBD1",
".X c #EAE3CC",
"XX c #EBE6DD",
"oX c #EAE5DA",
"OX c #F2E4D6",
"+X c #F6E8DC",
"@X c #EDECD1",
"#X c #E6E9E5",
"$X c #EBECE6",
"%X c #ECEDEC",
"&X c #E9E6EC",
"*X c #F4ECE5",
"=X c #F1ECEC",
"-X c #F8E6E7",
";X c #ECF3E5",
":X c #EEF2ED",
">X c #EDFAE7",
",X c #F1F1E4",
"<X c #F2F3ED",
"1X c #FCF4EC",
"2X c #FEFBEC",
"3X c #F8F8E9",
"4X c #EDECF2",
"5X c #ECE7F7",
"6X c #F2ECF2",
"7X c #F2ECF9",
"8X c #F7EBF5",
"9X c #EDF2F3",
"0X c #EDF5FA",
"qX c #ECF7F6",
"wX c #F4F4F4",
"eX c #FBF5F5",
"rX c #F5F9F3",
"tX c #FBFBF5",
"yX c #F7F6FA",
"uX c #F4F5FB",
"iX c #FBF5FB",
"pX c #F5FAFC",
"aX c #F8F8F8",
"sX c #F9F9F9",
"dX c gray98",
"fX c #FBFBFB",
"gX c #F9FAFA",
"hX c #FFFEFA",
"jX c #FFFBFF",
"kX c gray99",
"lX c #FDFDFD",
"zX c #FFFDFF",
"xX c white",
"cX c #FEFEFE",
"vX c #FEFDFE",
"bX c #FCFCFC",
/* pixels */
"xXwX%XxXwXwXxXwXdXdX%XdXdX%XxXdX#XxXiX4XxXwX%XhX=XeXhX$XyXjXR.y.r.I.hXpX$XxXeX:XxX6X<XxX6XuXxX$XdXxX%XdXdX%XxXdXwXxX%XwXxX%XwXxX",
"dXdXwXwXdXwXxX%XwXdXwXyXdXwXdXwXwXxXyX%XgX9XpXxX:XrX0XpXhXQ.Q #.2.Q !.tXuX0X<XqXyXuXpXrX<XxXiX%XwXdXwXdXdXwXdXwX%XxXwXdXwXwXdXdX",
"%XdXxX%XxXxX%XxXwX%XxXwXwXxX%XwXhX4XuXhX$XfXpX%XhXfXuXtXQ.+.t.7.9.4.+.I.2XwXiXjX<XiXfX%XtXwX&XxXwX%XxXwXwXxX%XwXxX%XxXxX%XxXdX%X",
"xXwXwXxXwXwXxX%XwXxXwXdXdXwXxXwX=XxXyX<XfXuX2X.XQ.I.U.z.~ @.2.` ~ 7._ ` :.I.R.U.'.2XuXxX;XwXxX$XwXxXwXdXdXwXxXwX%XxXwXwXxXwXwXxX",
"xXwXwXxXwXwXxX%XwXxXwXdXdXwXxXwX%XxX<X;XxXeXQ.$.^ 4.) ! 8.7.` ` ~ 7.8.2._ ! / ) M 1.1XjX<XwXxX;XwXxXwXdXdXwXxXwX%XxXwXwXxXwXwXxX",
"%XdXxX%XxXxX%XxXwX%XxXwXwXxX%XwXxX4XrXhX5X+X-.' &.3.8.8.%.#.2.q.0.@.#.%.0.3.r.! I h ).6XxXdX&XtXwX%XxXwXwXxX%XwXxX%XxXxX%XxXdX%X",
"dXdXwXwXdXwXxX%XwXdXwXdXdXwXdXwXaXyX<XwXjX(.^ ' +.t.! ~ { ~ 8.@.2.7.#.e./ 3.t.R C g 1.xX%XwXiX<XwXdXwXdXyXwXdXwX%XxXwXdXwXwXdXdX",
"xXwX%XxXwX%XxXwXdXxX%XdXdX%XxXdX=XxXdX4XjXQ.( 6.6.3.7.7.5.5.3.~ 4.@.7.3.3.3.5.Y F g 1.tX%XrXxX%XdXxX%XdXdX%XdXdXwXxXwXwXxX%XwXxX",
"%XwXxX%XdXxX%XxXwX%XxXwXwXxX%XwXgX%XiXtXqX|._ q.@.3.7.7.3.7.7.@.3.7.3._ 3.7.X.Z Y y T.0XhXaX%XhXwX%XxXwXwXxX%XwXxX%XxXdX%XxXwX%X",
"wXdXwXwXwXwXwXwXwXwXdXwXwXdXdXwXrXwXiXrXpX+Xt.` 7.3.3.@.3.3.3.3.7.@.@.7.7.%.Y Z Y k _.pXeXjXwXrXwXdXdXwXwXdXwXwXwXwXwXwXwXwXdXwX",
"xXwXwXxX%XwXxXwXdXdX%XxXxX%XxXwX4XjXwX$XxXeXb.[ 2.3.3.7.7.7.3.3.7.3.7.7.@.Y Z U B ;.1XxX%XyXfX%XdXxX%XxXxX%XdXdXwXxXwX%XxXwXwXxX",
"%XdXdX%XxXdX%XdXdXwXxXwXwXxXwXwXxX6XrXgX8XxX.X~ 3.7.3.@.3.@.@.3.3.7.3.Q I B P P l (.xX<XeXpX:XfXwXwXxXwXwXxXwXdXdX%XdXxX%XdXdX%X",
"%XdXdX%XxXdX%XdXdXwXxXwXwXxXwXwXxXwXrXgX1XwXjXv.~ 4.4.4.' 4.7.7.3.@.E P K P P n O.1XuX<XjXpX<XdXwXwXxXwXwXxXwXdXdX%XdXxX%XdXdX%X",
"xXwXwXxX%XwXxXwXdXdX%XxXxX%XxXyX$XxXwX%XtX<XiX}.Y Y X.@.@.@.%.X.Y Y Z Z A A A n !.aX4XhX%XwXjX$XdXxX%XxXxX%XdXwXwXxXwX%XxXwXwXxX",
"wXdXwXwXwXwXwXwXwXwXdXwXwXdXdXwXwXwXaXiXwXeXjX,X..n b Z j j n j k j k Z n j k Z }.xXwXwXgXeXiXrXwXdXdXwXwXdXwXwXwXwXwXwXwXwXdXwX",
"%XwXxX%XdXxX%XxXwX%XxXwXwXxX%XwXxX$XeXxX9XfX1X@XD.s.a.g.s.s.g.f.f.f.s.s.s.f.g.j.XXiXaX%XgXeX8XgXwX%XxXwXwXxX%XwXxX%XxXdX%XxXwX%X",
"xXwX%XxXwXwXxXwXdXxX%XdXdX%XxXdX-XhX>X9XeXuXOXS.K.K.K.K.K.K.K.K.H.K.H.H.H.K.K.K.A..XpXxX5XpXxX=XdXxX%XdXdX%XxXdXwXxXwXwXxX%XwXxX",
"dXdXwXwXdXwXdX%XwXdXwXdXdXwXdXwXeXuXiX8XtXfX%X^.G.G.G.G.G.G.G.G.A.G.G.H.G.A.A.A.~.eX:XtX1X,XjX<XwXdXwXdXdXwXdXwX%XdXwXdXwXwXdXdX",
"%XdXxX%XdXxX%XxXwX%XxXwXwXxX%XwXhX&XuXxXXXpX2XH.G.G.G.G.G.G.G.G.G.G.A.A.A.A.H.A.~.3XpX*XjXjXXXfXwX%XxXwXwXxX%XwXxX%XxXdX%XxXdX%X",
"xXwXwXxXwXwXxX%XwXxXwXdXdXwXxXwX;XxX:X;XgXpX+XA.K.H.H.H.H.K.H.H.H.K.H.K.K.G.K.G.G.+XpXxX7XwXxX9XwXxXwXdXdXwXxXwX%XxXwXwXxXwXwXxX",
"xXwXwXxXwXwXxX%XwXxXwXdXdXwXxXwX;XiXeX1XdX0XuX[.C.C.M.M.M.M.M.M.k.M.k.N.M.k.Z.H.H.OXuXgX;X<XxX<XwXxXwXdXdXwXxXwX%XxXwXwXxXwXwXxX",
"%XdXxX%XdXxX%XxXwX%XxXwXwXxX%XwXfX7XwXxX6XhXOXv.3.@.@.! ! @.@.@.3.@.@.3.@.! g.J.G./.+X4XtXtX&XxXwX%XxXwXwXxX%XwXxX%XxXdX%XxXdX%X",
"dXdXwXwXdXwXdX%XwXdXwXdXdXwXdXwXyXiXrXpXtXU.+.] 3.3.3.3.3.7.7.7.7.3.7.7.7.@.3.C.G.V.L.-XpX>XiXwXwXdXwXdXdXwXdXwX%XdXwXdXwXwXdXdX",
"xXwX%XxXwXwXxXwXdXxX%XdXiX%XxXdX$XjXdXXXv./ { 7.3.3.7.7.3.3.@.@.3.3.7.@.7.7.! f.J.h.V.^.XXpXhX:XdXxX%XdXdX%XxXdXwXxXwXwXxX%XwXxX",
"%XwXxX%XdXxX%XxX<X9XfXuX<XhX7X3XgXuX+Xt.) &.#.4.7.~ 7.7.3.e 3 s 7.3.3.7.#.@.3.3.A.N.i.A.D.OX:XhXwX4XtX$XuXxX%XeXxX%XxXdX%XxXwX%X",
"wXdXwXwXwXwXwXwXdXwXpXwXaXaX<XpXpX*X>.3.7.5.0.~ 2.3.#._ ' 9 @ i 8.3._ 3.3.7.3.@.k.K.! C.G.c.+XiXuXwXwXwXdXpXwXaXwXwXwXwXwXwXdXwX",
"xXwXwXxX%XwXxXwXuXhX%XrXjX4X2XiX*Xb.~ ^ &.0.5.3.2.3.@._ r.w   c 8.4.3.3.3.3.@.@.f.J.u.e.S.l.<.6XfXtX5XxXtX4XxXwXwXxXwX%XxXwXwXxX",
"%XdXdX%XxXdX%XdXiX6XhX2XwXiX<XiXR.^ r.@.3.5.2.7.8.7.9.9.+.8 @ t $.$.%.a.7.7.3.3.e.J.h.Q N.K.I I.hX$XxXwX<XjXwXrXdX%XdXxX%XdXdX%X",
"%XdXdX%XxXdX%XdXdX6XhXrX<XxXiX'.3.3.#.q.8.~ &.e.&.J x : > 2 5 * - ; 9 v n %.7.2.#.A.M.%.a.G.j.g _.eXxXwXwXaXwXrXdX%XdXxX%XdXdX%X",
"xXwXwXxX%XwXxXwXwXxX<XwXtX4XeXc._ #.#.5.2.t.&.! s & o 4 2 < < * 5 2 @ O + n 7.3.#.Z.Z.5.! Z.G.B *.fX$XgXxX$XxXwXwXxXwX%XxXwXwXxX",
"wXdXwXwXwXwXwXwXaXuXdX:XpXeX].#.3.~ &.7.2.%.t.z . # 6 2 # - * 4 O # 2 5 * m 7._ _ F.C.` 2.h.G.5.h ).eXrXrXdXwXrXwXwXwXwXwXwXdXwX",
"%XwXxX%XdXxX%XxXwX6XxXrX4XxXc.) #.9.3.#.#.' T 4 2 6 # - 0 ; + q z 0 2 < o M 7.4.6.B.B.@.2.i.J.y.g *.jX9X;XxX4XrXxX%XxXdX%XxXwX%X",
"xXwX%XxXwXwXxXwXeXhX4XrXgX'.! 3.` @.7.7.3.t.v @ 2 % * b y.r @ i r.t.Q Y p b a._ ! F.C.! 7.3.J.h.H f '.tXyX<XxXtXwXxXwXwXxX%XwXxX",
"dXdXwXwXdXwXdX%XeXrXuXrXaXI.3.#.3.3.7.5.! e.p , 2 # 7 0.' 8 , c 8.5.7.7.#.#.3.5.3.G.M.Q 7.! F.C.n Z P.rXyXwXuXeX%XdXwXdXwXwXdXdX",
"%XdXxX%XdXxX%XxXaX#XxXyX=Xd.! 7.3.#.3.6.3.t.w < 7 < 2 X.r.e X i ` 2.8.@.3.~ ~ 7.7.J.h.! y.! y.r.P C *.*XwXhX4XaXxX%XxXdX%XxXdX%X",
"xXwXwXxXwXwXxX%XwXxXwXiXOX^ 2.7.&.3.3.3.3.t.i @ * 5 2 8  .0 2 s a.4.` 3.7.@.7.! r.J.f.Q 7.7.3.3.K F h OXtX:XxXwX%XxXwXwXxXwXwXxX",
"xXwXwXxXwXwXxX%X<XxX:XxX'./ 4.6.&.3.3.2.2.3.m O * 5 @ @ - * @ ; z U +.e.3.7.8.5.y.Z.f.3.@.2.3.3.K F f ).tX%XxXwX%XxXwXwXxXwXwXxX",
"%XdXxX%XdXxX%XxXrX6XtXiXR.[ 2.3.7.3.3.3.3.3.+.8 2 * * 5 # 5 2 < * @ - c X.t._ 3.! r.! 3.3.7.7.3.P Z B P.aXxX=XaXxX%XxXdX%XxXdX%X",
"dXdXwXwXdXwXdX%XwXiX3XiXn.^ 7.3.2.3.#.7.3.3.7.U & = * * # # 2 6 + 6 3 @ ; Y t.` 7.3.! 3.3.3.3.! U Y f <.xXwXeXrX%XdXwXdXwXwXdXdX",
"xXwX%XxXwXwXxXwXrXjX;XpXn.6.~ 3.7.3.#.7.@.` 4.7.O.x 4 # # 3 2 & 2 # # 5 @ : -.7.7.@.7.3.3.3.7.! U k Z ,.iX%XhXwXwXxXwXwXxX%XwXxX",
"%XwXxX%XdXxX%XxXiX$XxXwXx.! 7.3.3.3.7.7.#.@.5.2.4.3.Q A z 5 # 4 + 3 2 5 2 O P t.2.7.3.3.3.3.3.#.P U k =.wXxX%XaXxX%XxXdX%XxXwX%X",
"wXdXwXwXwXwXwXwXyXwXwX<Xz.3.! 7.3.3.2.@.3.7.3.3.6.3.3.4.t.r + e H 7 2 - 5 * p y.2.7.3.3.3.3.3.#.P n P =.<XiXwXeXwXwXwXwXwXwXdXwX",
"xXwXwXxX%XwXxXwXwXhX%XaXz.! 7.2.@.3.7.3.4.4.~ 3.3.! 7.8.3.8 O c u. .= # % < x 3.2.7.3.3.3.3.3.@.Z Y k =.rX4XxXwXwXxXwX%XxXwXwXxX",
"%XdXdX%XxXdX%XdXiX:XdXaXd.#.7.3.@.7.7.3.` 4.+.-.3.~ 7.w.3.e , i ' p.0 * # 3 0 e.2.7.3.3.3.3.7.@.Z U Z ..wXiX:XdXdX%XdXxX%XdXdX%X",
"%XdXdX%XxXdX%XdXiX:XdXaXd.~ 4.3.3.3.#.! 3.3.h x +.:.p.` } r   c r.X.7 2 5 @ x e.2.3.3.3.3.3.7.! Z Z Z ..rXiX:XdXdX%XdXxX%XdXdX%X",
"xXwXwXxX%XwXxXwXwXhX%XaXm.! 7.@.3.#.#.3.4.5.9 o > w M Y T r @ r ..9 4 , 5 O m r.3.3.3.3.3.7.7.E k Y k =.aX4XxXwXwXxXwX%XxXwXwXxX",
"wXdXwXwXwXwXwXwXyXrXdXwXz.3.! 7.7.3.7.3._ 0.z 3 2 # @ = 4 2 # & O # * 6 2 : #.3.3.3.3.3.3.7.7.T Z n U =.wXpXwXeXwXwXwXwXwXwXdXwX",
"%XwXxX%XdXxX%XxXiX$XxXwXz.! 4.3.3.&.7.7._ 7.p $ < 5 # - 2 1 # 3 1 1 - @ 2  .~ 6.3.3.3.3.3.7.3.I Z U n =.wXxX%XaXxX%XxXdX%XxXwX%X",
"xXwX%XxXwXwXxXwXuXtX$XaXn.@.` 7.3.3.3.3.7.7.T a 8 * # @ O % - = , , = p X.7.2.3.7.7.7.3.3.7.@.P F K B <.iX%XhXwXwXxXwXwXxX%XwXxX",
"dXdXwXwXdXwXdX%XuXeX<XxXn.! r.@.7.3.3.3.3.7.7.p.&.O.J v z - @ q h U +.#.t.3.@.7.@.3.3.3.3.7.+.k m R f <.xX<XeXwX%XdXwXdXwXwXdXdX",
"%XdXxX%XdXxX%XxXpX4XhXjXI.` 3.7.3.3.7.7.3.@.2.7.2.e.7.y.a.x , z u.r.` ` ` 3.3.3.3.3.3.3.3.@.Y k U Z N 1.iXhX&XdXxX%XxXdX%XxXdX%X",
"xXwXwXxXwXwXxX%X<XxX<XxX(./ 3.3.3.3.3.3.3.7.3.@.8.` 2._ ` 8   d 4.2.2.8.7.3.3.! 7.3.3.7.#.T Z P P Y y W.xX;XjXwX%XxXwXwXxXwXwXxX",
"xXwXwXxXwXwXxX%X<XxX$XxX}.^ 4.! 3.3.3.3.3.7.7.7.5.~ 3.3.t.e , s 7.7.7.5.@.2.7.7.3.3.3.#.+.P k P P S l |.xX,XjXwX%XxXwXwXxXwXwXxX",
"%XdXxX%XdXxX%XxXaX4XhXwXoX:.2.t.3.3.3.7.7.@.@.3.3.e.#.2.#.0   x r.#.#.#.3.7.7.@.3.7.7.E P Z Z Z P C J oXwXhX4XaXxX%XxXdX%XxXdX%X",
"dXdXwXwXdXwXdX%XaXrXeXrXwX<.X.#.7.#.3.3.7.3.3.3.3.#.3.3.7.n p A 4.3.4.3.#.3.7.7.#.@.E Z n Z U Z Z Z ,.wXaXwXrXwX%XdXwXdXwXwXdXdX",
"xXwX%XxXwXwXxXwXiXgX=XrXxXI.j T Q 3.7.3.3.7.7.2.8.@.7.4.! { e.8.6.6.2.3.3.3.#.! E B k Z Z A U Z U f U.xXwX4XgXwXwXxX4XwXxX%XwXxX",
"%XdXxX%XxXxX%XxXyX<XtXuXuX2X| L A P I +.%.%.@.4.3.3.7.7.7.3.2.2.7.2.@.@.+.T P B V Z A A R k Z Z L | 2XuXuXhX<XyXxX%XxXxX%XxXdX%X",
"wXdXwXwXwXaXwXwXyXwXaXwXuXhX`.v  .n P B f I R P Y Y Y Y Y T T Y I I Z Z Z Z Z A n Z Y k B Z U Y v (.hXuXuXtXwXyXwXwXdXwXwXwXdXwX",
"xXwXwXxX%XwXxXwXyXhX$XiXxX4X2XT.u Y Y Z Y n n U n n n k k G K K k G H H H P Z Z P P k P U U Y a T.2X4XxXiX$XhXyXwXxXwX%XxXwXwXxX",
"wXdXdX%XdXdXwXdXyXwXhX<XuXiXwX1XU.M k P Z A A A Z A Z Z Z Z Z Z U P Z Z Z Z A S Z Z Z P B h M U.1XwXiXuX<XhXwXyXdXwXdXxX%XdXdXwX",
"wXdXdX%XdXdXwXdXuXwXhXwX%XxXwXgXxX(.O.f D S Y K Z P P P Z Z A A A A Z Z Z Z Z Z K Y S S f O.(.dXxXwXxX%XwXhX%XyXdXwXwXxX%XdXdXwX",
"xXwXwXxX%XwXxXwXyXiX%XxXhX#XxX9X<XxXeXW.*.P y Z P H Z Z P Z A U A A P Y P P Z n b j H *.W.eXfX,XqXxX#XhXxX%XxXdXwXxXwX%XxXwXwXxX",
"wXdXwXwXwXdXwXwXwXdXyXwXaXwXdXwXiXwXrXfXwX.XQ.<.$.Y Z B B N f N B N f g k Z Y O.x.R.|.rXgX<XaXiXyXdXwXaXwXpXgXwXwXwXdXwXwXwXdXwX",
"%XdXxX%XxXxX%XxX<X%XxXuXwXxX4XwXfX%XrXxX%XxXxX9XxX$X X{.).(.Y.Y.Y.Y.(.).{. X%XjX9XxXjX%XhXwX#XfXuX6XxXwXuXxX%X<XxX%XxXdX%XxXdX%X"
};
