/* XPM */
static char *_dae237c0bea4bf1f927b860fb707f53Sm14V6siP8UpB5qq[] = {
/* columns rows colors chars-per-pixel */
"64 64 229 2 ",
"   c #3D0502",
".  c #3C0606",
"X  c #3C0803",
"o  c #420501",
"O  c #4B0501",
"+  c #430901",
"@  c #4C0A01",
"#  c #540601",
"$  c #5B0601",
"%  c #540A01",
"&  c #5B0A01",
"*  c #580909",
"=  c #5B0E0A",
"-  c #4C1100",
";  c #551301",
":  c #5C1301",
">  c #5D1902",
",  c #630602",
"<  c #610C01",
"1  c #61080A",
"2  c #631200",
"3  c #6B1401",
"4  c #651A00",
"5  c #6B1B01",
"6  c #671A09",
"7  c #721D00",
"8  c #592607",
"9  c #5C2404",
"0  c #5C2B0C",
"q  c #4A2C19",
"w  c #5C2C12",
"e  c #582A18",
"r  c #5D331A",
"t  c #593419",
"y  c #652502",
"u  c #6C2601",
"i  c #652B04",
"p  c #6C2C02",
"a  c #662708",
"s  c #69270C",
"d  c #652D0D",
"f  c #6B2D09",
"g  c #722501",
"h  c #7A2602",
"j  c #722C01",
"k  c #7A2C01",
"l  c #722B0A",
"z  c #792F0A",
"x  c #6E3105",
"c  c #66310D",
"v  c #6C320B",
"b  c #733104",
"n  c #7D3303",
"m  c #73320B",
"M  c #7B330B",
"N  c #7B3B09",
"B  c #7B3A0C",
"V  c #622E14",
"C  c #6A2810",
"Z  c #732E11",
"A  c #643211",
"S  c #6B3312",
"D  c #693518",
"F  c #633A1C",
"G  c #6E3B1C",
"H  c #733512",
"J  c #7C3514",
"K  c #753A14",
"L  c #7C3B13",
"P  c #733B1B",
"I  c #4D3629",
"U  c #553B2A",
"Y  c #5C3A2A",
"T  c #4B3C35",
"R  c #623B25",
"E  c #643924",
"W  c #124418",
"Q  c #17481C",
"!  c #1A4A1E",
"~  c #2C5C1D",
"^  c #1D4C21",
"/  c #214E25",
"(  c #235026",
")  c #2A5924",
"_  c #2C552C",
"`  c #31562E",
"'  c #345B33",
"]  c #3A5E38",
"[  c #356226",
"{  c #396427",
"}  c #3A652A",
"|  c #3D603B",
" . c #7D4114",
".. c #7A421B",
"X. c #4F7C1C",
"o. c #5D412D",
"O. c #5C473A",
"+. c #425F37",
"@. c #6B4123",
"#. c #654429",
"$. c #734425",
"%. c #77482A",
"&. c #70532C",
"*. c #684835",
"=. c #744D35",
"-. c #6D5639",
";. c #7E5533",
":. c #74573B",
">. c #41692E",
",. c #537F21",
"<. c #466736",
"1. c #42623E",
"2. c #4C713B",
"3. c #51723F",
"4. c #7F653E",
"5. c #554842",
"6. c #634E44",
"7. c #694E43",
"8. c #6E5A44",
"9. c #665449",
"0. c #715543",
"q. c #755D45",
"w. c #6C5B52",
"e. c #496745",
"r. c #4C6844",
"t. c #536A45",
"y. c #546C4A",
"u. c #596C4B",
"i. c #587646",
"p. c #5D7255",
"a. c #597158",
"s. c #696649",
"d. c #656D4D",
"f. c #6B6B4F",
"g. c #75644D",
"h. c #7C6748",
"j. c #736B4E",
"k. c #68774B",
"l. c #717947",
"z. c #696B55",
"x. c #756956",
"c. c #657254",
"v. c #6B7155",
"b. c #6B7E54",
"n. c #6B755B",
"m. c #737454",
"M. c #757A58",
"N. c #6E7B61",
"B. c #767764",
"V. c #737C63",
"C. c #822D03",
"Z. c #852A05",
"A. c #802D09",
"S. c #843502",
"D. c #8A3501",
"F. c #853903",
"G. c #8B3902",
"H. c #84350B",
"J. c #8B360A",
"K. c #853A0B",
"L. c #8B3C0B",
"P. c #913602",
"I. c #913B04",
"U. c #923708",
"Y. c #923D0A",
"T. c #873714",
"R. c #843C12",
"E. c #8A3C11",
"W. c #974307",
"Q. c #92420C",
"!. c #834215",
"~. c #8B4313",
"^. c #83421B",
"/. c #8C451A",
"(. c #894C1C",
"). c #944611",
"_. c #934A15",
"`. c #9A4C15",
"'. c #934C1C",
"]. c #9B4B1A",
"[. c #9B511B",
"{. c #A14F1B",
"}. c #A1521C",
"|. c #874B25",
" X c #964D21",
".X c #81512A",
"XX c #9B5323",
"oX c #93542B",
"OX c #985629",
"+X c #885A37",
"@X c #985B34",
"#X c #A45522",
"$X c #A65A27",
"%X c #AA5C2B",
"&X c #AD5F31",
"*X c #89623A",
"=X c #9B6438",
"-X c #AF612D",
";X c #A36235",
":X c #AA663A",
">X c #B36836",
",X c #80564B",
"<X c #866448",
"1X c #936B48",
"2X c #8A7F49",
"3X c #967448",
"4X c #857756",
"5X c #AC7046",
"6X c #877E6B",
"7X c #4D8426",
"8X c #4E8528",
"9X c #548429",
"0X c #5C842C",
"qX c #5D8B34",
"wX c #638731",
"eX c #6A8B3B",
"rX c #6B8C39",
"tX c #758E45",
"yX c #749347",
"uX c #788556",
"iX c #7B9456",
"pX c #828E4F",
"aX c #878956",
"sX c #988853",
"dX c #899056",
"fX c #879559",
"gX c #A08754",
"hX c #878A65",
"jX c #8A9769",
/* pixels */
"W 7XW 7X~ ~ W W W W ~ X.X.W W W W W W W W W W W yX( qX<X$.@Xl.{ 2X=X3X<.<.@X1Xk.4XfXW 7X~ ~ X.W W ~ 7XW 7XW W W ~ W ~ W W X.X.W ",
"X.W X.~ ~ 7XW 7XW W W ~ ~ W 7XW 7X~ ~ 7XW 7X{ sX%.*X*X^.m K @X=X!.B B OX=XM R.oXP $.dXQ yX2.W W W X.W X.~ W W W W ~ W ~ W W ~ ~ ",
"W X.~ ~ W W X.W X.W W W W X.W X.~ ~ X.' pX^ sXH M K.S.F.L.F.F.n n L.J.S.E.L.J.S.F.N (.3X$.<X' W W W X.~ ~ W W 7XW 7X~ W W ~ ~ ~ ",
"W W W W W W W X.W X.W W X.W X.W ~ >.' 4.G 3XoXM K.G.F.S.S.F.F.F.S.L.J.J.D.J.D.I.D.G.n K.L P 4X! W W W W W W W W X.W X.W 7XW 7XW ",
"~ ~ 7XW 7XW ~ W X.W W W W X.W j.;..X+XM !.n S.L.G.S.}.).S.G.F.G.F.D.J.D.J.U.D.D.G.F.S.G.K.n !.5XsX1XdX~ W W W ~ ~ X.W X.~ X.W X.",
"X.~ ~ X.W X.W ~ W X.W W W W h.S n L.S.Y.G.G.L.Q.{.S.#X`.D.G.D.D.F.S.G.S.G.D.J.D.`.{.Q.$XG.L.L.n N x $.4X~ W W W ~ ~ X.W W W X.W ",
"W W ~ ~ 7XW 7XW W W W W 7Xf.v !.L.S.S.F.S.S.G.[.#XF.).L.D.P.P.I.F.F.F.G.G.S.G.J.$X%X).>XY.S.F.F.F.K.B G u.7XW W W ~ ~ W W W ~ X.",
"W W W W W X.W W W ~ u.-.*XoXK.F.D.D.F.F.G.S.F.).Q.F.G.F.D.I.D.D.F.F.F.F.F.F.L.S.].].~.#XL.D.G.F.F.F.F.N gXW X.W W W W 7XW 7X~ W ",
"W 7XW W W W 7XW ~ <.F S B L.S.F.F.F.F.F.F.F.F.G.L.S.G.L.G.D.L.F.S.F.G.F.F.G.G.S.F.F.F.F.F.D.D.G.L.].Q.S.@XrXW ~ W ~ X.W X.~ W 7X",
"X.W X.~ W W W ~ W &.i B F.D.G.G.F.F.F.F.F.G.J.J.J.h h A.A.H.H.h 7 h A.h h h S.L.F.F.F.F.F.G.G.G.E.-XY.Y.F.|.M.W ~ W W X.W W W W ",
"W X.W ~ ~ W W W k.i K.F.I.D.D.J.D.D.G.D.C.C.A.A.5 < % & & 2 2 & $ < 3 2 < < 4 g H.H.J.S.S.G.L.G.K. XY.D.S.M +X9XW 7XW W W W W W ",
"W W W ~ 7XW iX#.P p F.C.D.P.Z.C.Z.T.T.h 3 < < & 2 % % & $ $ & $ $ $ $ , $ $ % < 7 5 5 4 4 g S.J.E.k G.D.I.K...r.X.W X.W ~ ~ ~ W ",
"7XW W X.W 0X*.A i j S.Y.U.J.A.3 , 3 6 < % % & & % % & , $ $ , , 1 $ $ & < & & % $ $ $ $ % 2 g L.J.G.D.Y.D.k !.3Xm.wXW X.~ ~ 7XW ",
"W W 7XW 7Xf.8 i b g G.D.J.7 2 # $ 1 & $ $ % % # % % & & , , , , * $ $ % % $ $ * * $ * & % % 5 H.S.G.C.L.J.K.~.p 8 h.,.W ~ X.W X.",
"~ ~ W X.W q.c p p k L.S.T.4 & : & $ $ % & < < & $ % $ # % % % % * & & & % $ $ & & $ < < $ $ < 3 Z.3 5 l z H.J.n m 0 b.~ W W X.W ",
"W ~ 7X~ Q @.9 b j n S.L.H.& % % & & & & & $ $ < $ & % % % % % ; % % % % % & & & $ $ $ $ $ & $ $ $ < & # 4 H.J.S.u i 4XW W W W W ",
"W W ~ ~ _ E c p j S.D.J.7 < # * $ % & & % $ % & & & % % % % % % @ @ @ % % % % & $ $ & % % % % % $ & $ < 5 A.L.n j p 1XW 7X~ ~ W ",
"W W W W ' G i p n S.G.D.3 $ & * = % % % % # O # % % # # O O O + o o o @ @ % % * * * * % % % @ % * # & $ 3 H.T.S.p p |.wXW X.~ ~ ",
"W 7XW 7X` G f B /.S.S.h < $ = # * @ o o o o o o @ O o o o o o o o   o o o O O % % % # O O O O O O O = % 4 E.H.n p p f h.X.W ~ ~ ",
"X.' ,.~ >.P p @X$XK.S.g % # = O @ o             o o o o           o   o o o o o @ O o o o o o o o O & % 2 H.H.n j b i F i.W W W ",
"_ s.B.~ l.i K =X:XE.L.k 4 % % @ o o   . . . . X X     o o o o o o o         o o + o o o o o . . o o O % 4 S.E.n p p i 0 c.~ W W ",
"u.U 6.>.*Xf x :X;XK.K.K.z 4 O o o       X X . X X     o o o       .       X     X           .   o o O 4 h S.K.k b p H 0 M.W [ ' ",
"fXY 0.r.D p p (. XK.n K.T.l O o O o o         .       o o o           . . X X X X X         o o   o 4 z K.G.K.K.x p i V f.~ 4Xq.",
"1.*.8.t.P p p b B R.~.~.K.g O : : @ o o o X                   o       X X X X X X X X o o o @ @ @ @ z E.G.F.K.XX!.y f w d.X.:.r ",
"Q fXy.yXS p x p j M XX-XS.A.g M T.H :     +   X   +   X .   . X     + X +   X .     + o o ; l J p u S.L.F.F.S._.B x f V tXW h.R ",
"uX>.X.<.V p  . Xb M XX$XL.J.S.J.T.T.u @ o o   + o + o       X X + + +     + +   o o o o > j K.S.K.K.S.G.D.S.S.k b p f V r.X.v.4X",
"I i.~ eXG p !.;XM n _.`.G.G.G.G.S.E.M g u y > ; s C 6 @ o o + - 9 y y ;   o o o ; > > 4 j J.G.D.G.G.D.D.F.F.S.j y p f V y.W W ! ",
"x.2.~ 2.G p ^.;XM j L.F.S.D.G.D.D.G.S.S.H.T.H.M T.R.J 4 O o @ s L R.L l @ ; ; % Z J R.H.S.F.D.G.D.D.Y.D.S.F.n j p b f D 1.7X^ m.",
"! 7XW iX0 p B !.j j K.S.D.D.G.D.D.G.G.D.D.D.D.L.S.G.L.S.5 4 4 R.E.K.S.H.j k z j R.T.J.J.Y.D.D.I.G.D.I.F.F.K./.B p p p %.0XW eX5.",
"W W X.c.8 p p p j j K.F.G.F.G.D.W.Y.G.G.G.D.D.D.D.D.G.G.S.L.M E.S.S.S.G.S.G.J.F.J.S.S.D.G.D.D.G.D.G.S.F.K.B OX^.p p f %.{ X.W iX",
"W W W aX0 p p b j j n F.G.D.F.F.$X).F.S.F.G.G.G.G.G.D.D.L.#XE.H.D.D.I.G.D.S.D.F.F.F.G.F.S.D.G.D.D.D.L.n b p ^.m p p p $.>.W X.W ",
"W W W v.d p b p j j k S.S.S.F.G.}.Q.G.F.F.F.F.F.D.G.F.F.).>X_.S.G.P.D.D.I.G.G.F.F.F.F.D.F.Q.).F.G.S.%XK.p x f p p p p $.( W W X.",
"W 7XW c.c p p p j j g j b G.D.P.G.G.G.D.G.G.D.G.D.D.F.D.).%X_.F.I.P.D.I.D.D.G.F.F.S.D.G.D.G.`.F.K.K.&X/.p y p f b y d :.W ~ W ~ ",
"X.W X.y.9 j H f p j j j j n D.P.I.D.D.G.D.D.D.D.G.D.D.F.L.`.F.S.S.D.D.Y.D.S.F.F.F.D.D.F.S.F.Q.S.n K.XXR.p p p p y v 0 d.~ e.} W ",
"W X.W ' @.y y f p j p p p n S.L.G.S.D.G.D.D.G.D.G.D.S.F.F.G.S.L.[._.S.F.F.F.D.D.F.G.D.D.G.J.F.n j x x i p p p p f 0 j.~ 8X9.jXW ",
"W ~ ~ ~ 8.0 v p j j f f p b J.J.S.L.K.G.F.G.G.F.S.F.D.Q.G.F.F.).>X$XK.F.F.G.F.D.D.G.D.S.J.J.M j j p i i p p p i c =._ X.^ w.V.W ",
"W W ~ ~ k.R 8 f j j d d i p E.E.E.$X~.n n K.S.G.S.G.G.#X{.F.F._.:X;X!.K.K.F.S.G.D.D.C.j j M m p p p v v p p j f -.] X.W X.B.e.W ",
"W 7XW 7X~ m.=.P p j d A i p  XXX/.:X/.j j n k S.F.F.L.>X-XG.S.'.5X=X!.B n S.S.F.D.S.j j j L |.v j p p y y b f 0 u.W W X.W ~ W ~ ",
"~ W X.W X.~ Q dXl j a c c p '.'.R.;XL p p b j j n K.K.>X%XS.S./.5XoXm b j n S.S.S.n u p p ..@XK p j j j j x d 0.^ ~ ~ ~ ] ( ~ W ",
"~ W W 7XW 7XW ` P f f f v y K.b p |.m p p j p p j K.S.XX/.j j n ^.M u j g j n K.n b y b p ..=Xv f j j j p d -.' W c.b.W x.jXW 7X",
"W W W W X.p.u.W h.d p p b p p j p p m b p p p p j b B B b p p j j j j j j j j j p p p b p b  .p v y j p i r y.W ^ 6.g.9Xx.B.X.W ",
"~ W W ~ _ O.7.[ W h.y j j u b y p p p p j j p p p j b b p p p p p j j p p p p p j p B y p b y b i v x i w 8.9X~ wXU 0.! y.' ~ X.",
"W 7X~ W i.U Y 1.~ e.A p g j p v p j j p b y p b p p p p p p p p p p p p p p p p p y p p j y j j p p c ;.x.eX~ W Q -.x.W W ~ W ~ ",
"X.W X.~ r.U o.1.7X_ #.v u j p i p p y p b p j p p p p p f f p p p p p p p p p p p m p m p j M y v d @._ X.W W ~ W b.e.W ~ W ~ W ",
"W X.' 1.] U o.wXW W f.F P s i v v p p x p b b y p p p p p p p p p p p p p p p p v p f y f f a S d w g.X.~ W W W ~ W 7XW 7X~ W W ",
"W ~ x.0.qXn.aXW W W Q 1.pXD c d v y p f p p p j p p p p p p p p p p p p p p p p p i S d 0 0 $.w w R tX~ W ~ 7XW 7XW W X.W X.W W ",
"W Q =.E | X.W Q ) ~ ~ W W h.9 v i K |.i p p p p j p p j j j j j p p j j j j j j p v A &.=.j.' M.j.r.W W ~ X.W X.W W W W X.W ~ W ",
"7X7X:.Y 2.~ W uXM.~ W W W ] :.8 F d.+.$.8 d f f j p p p j j j p j j j j j j j p v 8 =.>./ ~ 7XW 7XW W W W W X.W W W W ~ ~ ~ W 7X",
"X.W n.w.7XW 7XB.z.W W W W W _ y.e.~ ~ 3.d.f..Xa l p p p p j u g j j p m p p p p A e b.W ~ X.W tXi.~ W W W W W W W W W W W W X.W ",
"W W [ qXW X.W y.a.7XW 7XW ~ W W 7X7X~ W W W f.V s s c S c d =.<XH i S 0 ;.;.i A R v.W ~ X.W X.w.g.W 7XW W 7XW 7XW W W ~ W X.W X.",
"W W W W X.~ W W X.W X.W ~ W W W W W X.W W ~ _ =.V w r d.k.M.} X.f.R q o.i.Q t.b.| ~ e.B.( X.^ *.6.9X~ W X.W X.W W W ~ W ~ W X.W ",
"W W W W ~ ~ ~ 7XW 7XW ~ W W W W W X.W X.W W ~ e.:.*.uXW 7X~ ~ W X.k.n.i.7XW 7XW ~ W m.q c.W W 9.9.W W X.W X.~ 7XW 7XW ~ W W W W ",
"~ 7XW 7XW ~ ~ W X.W W W 7XW 7X~ ~ W X.W W W W ~ Q } W X.W X.W W W W ~ X.W X.W W W ~ h.t aXW ~ V.N.W W W X.~ W W X.W X.W W W ~ ~ ",
"W W X.W X.W W W W W W X.W X.~ ~ W W W W ~ ~ 7XW 7X~ W W X.W 0Xz.^ W X.W X.~ W W W W -.t m.9X~ ~ W W W X.~ W W W W X.W X.W 7XW 7X",
"X.W ~ X.W X.W W W W W W X.~ ~ W W W W ~ ~ X.W X.W z.p.W W X.c.Y b.W W X.~ W ~ W W W M.r pX6X0XW W W ~ W W W W ~ ~ ~ X.W ~ W X.W ",
"W W W ~ X.W W 7XW 7X~ W ~ ~ W W W W W ~ X.W X.W ' T x.W W ~ m.q N.W W W W ~ W 7XW 7X! t.^ hX/ W W W W 7XW 7XW W ~ ~ ~ W W ~ W X.",
"W W W W ~ ~ W ~ X.W X.W W 7XW 7XW W W W W X.W W 1.I x.7X~ W b.I p.7X~ W W W X.W X.W ~ W ~ W X.W W W W W X.W X.W W ~ 7XW 7XW W W ",
"7XW 7XW W W W ~ ~ X.W W X.W X.W ~ ~ ~ W X.W W W 0XO.4XW W 2.eXv.0X~ W ~ W X.W X.W W W ~ ~ W W W W W W W W X.W W W X.W X.W W W W ",
"W X.W W W W W W W W W X.W X.W W W W ~ ~ W W W X.W iX2.W 1.O.m.X.W W ~ W W W X.W W W W 7XW 7XW W W 7XW 7XW W W W X.W X.W ~ ~ 7XW ",
"W W W W W 7XW 7XW W W W X.W W W W 7XW 7XW W W W X.~ W W n.q -.! W W W W W W W ~ W ~ X.W X.W W W X.W X.W W W ~ ~ W X.W W W X.W X.",
"~ W W W X.W X.W W W W X.~ ~ W W W W X.W X.W ~ ~ ~ W W W x.r F ' 7XW 7XW W W ~ W ~ W W X.W W W X.W X.W W W ~ W ~ W W ~ ~ ~ W X.W ",
"W W W X.W X.W W W W W W ~ 7XW 7XW W ~ X.W X.~ ~ W W ~ 7Xg.r #._ W X.W X.W W W ~ W W W W W W W W X.W W W ~ W 7XW 7XW W W ~ ~ W ~ ",
"W W W W X.W W W W 7XW 7XW ~ X.W X.~ ~ ~ X.W W W W ~ ~ ~ dXe q.Q W W X.W X.W W W W ~ ~ ~ 7XW 7X~ ~ W W W W ~ W X.W X.W 7XW 7XW W ",
"W W W X.W W W W W ~ X.W X.W ~ X.W ~ ~ W W W W W W ~ ~ W ' ,XV.~ W W W X.W W W W 7XW 7XW W X.W X.W W W 7XW 7XW ~ X.W W W X.W X.W "
};
