/* XPM */
static char *fa0fde96df564400858a23f7debccbae5sAPXTRea2ucbHe1[] = {
/* columns rows colors chars-per-pixel */
"64 64 221 2 ",
"   c #292315",
".  c #124418",
"X  c #18491C",
"o  c #2C5C1D",
"O  c #33561F",
"+  c #1A4B20",
"@  c #2F5C26",
"#  c #345B29",
"$  c #2D5930",
"%  c #336224",
"&  c #3E6233",
"*  c #3D663D",
"=  c #4F7C1C",
"-  c #42642E",
";  c #4C692C",
":  c #476B33",
">  c #4C6C37",
",  c #44653A",
"<  c #506A37",
"1  c #4C7034",
"2  c #587736",
"3  c #607934",
"4  c #675B4D",
"5  c #436642",
"6  c #58794B",
"7  c #746E62",
"8  c #7B7464",
"9  c #917957",
"0  c #867B65",
"q  c #A07E7C",
"w  c #4D8426",
"e  c #5B8327",
"r  c #658935",
"t  c #7A8E38",
"y  c #6D9035",
"u  c #76913F",
"i  c #5C8352",
"p  c #658144",
"a  c #6B904D",
"s  c #768B58",
"d  c #6A8766",
"f  c #6D8D62",
"g  c #758F60",
"h  c #799578",
"j  c #858B3C",
"k  c #A5893F",
"l  c #94914E",
"z  c #98805E",
"x  c #9C9550",
"c  c #BD8E58",
"v  c #BB9E52",
"b  c #89A558",
"n  c #9DA25B",
"m  c #BCA755",
"M  c #BBB158",
"N  c #878274",
"B  c #909870",
"V  c #B09369",
"C  c #B89777",
"Z  c #88A568",
"A  c #95A866",
"S  c #97B16F",
"D  c #8BA67E",
"F  c #99A577",
"G  c #BEA560",
"H  c #B8A275",
"J  c #A9B774",
"K  c #B7B37E",
"L  c #CCBA5C",
"P  c #D39F6D",
"I  c #C49373",
"U  c #C4A467",
"Y  c #C4B46C",
"T  c #D9B76D",
"R  c #C4A77F",
"E  c #CFB17B",
"W  c #D6B57B",
"Q  c #E1BE7A",
"!  c #BFC77F",
"~  c #CFC15B",
"^  c #D9CB64",
"/  c #D6C87F",
"(  c #DCD677",
")  c #97958E",
"_  c #9D9A8B",
"`  c #A19F8C",
"'  c #AE9F8C",
"]  c #B99B81",
"[  c #A29F92",
"{  c #A99F95",
"}  c #8CA186",
"|  c #96AA8E",
" . c #9BAC93",
".. c #9BB09B",
"X. c #B1AC82",
"o. c #A7BA8C",
"O. c #A8A697",
"+. c #ADAB9C",
"@. c #B5A997",
"#. c #B4B692",
"$. c #AEACA2",
"%. c #B8ACA4",
"&. c #ADB6A4",
"*. c #B5B2A5",
"=. c #B9B4A3",
"-. c #B9B9AA",
";. c #B8B8B5",
":. c #C4A885",
">. c #CEAC86",
",. c #D1AE84",
"<. c #C9BB85",
"1. c #D9BA86",
"2. c #C8AA93",
"3. c #CFB899",
"4. c #D6B295",
"5. c #E5B987",
"6. c #EBB78F",
"7. c #EBBF8C",
"8. c #E8B893",
"9. c #E3BC9A",
"0. c #F2BB93",
"q. c #C7B5A7",
"w. c #C3BBAC",
"e. c #D3B9A3",
"r. c #C6BCB7",
"t. c #B7C3AA",
"y. c #B1C4B1",
"u. c #C3CA95",
"i. c #D3D290",
"p. c #DCD094",
"a. c #E9C287",
"s. c #EAC48C",
"d. c #E4D789",
"f. c #EBC591",
"g. c #EFC99E",
"h. c #F6C39F",
"j. c #F8C69D",
"k. c #EFD09A",
"l. c #F3D19D",
"z. c #EBEB8A",
"x. c #FFF89F",
"c. c #C5C7AC",
"v. c #D7C5A9",
"b. c #C6D2AB",
"n. c #C6C3B2",
"m. c #CCC4B5",
"M. c #C3CCBD",
"N. c #CBC8B8",
"B. c #CCCBBB",
"V. c #D5C7B9",
"C. c #DACDBF",
"Z. c #CCD5BF",
"A. c #D7D7BF",
"S. c #EAC7A6",
"D. c #EDCBA7",
"F. c #F8C8A3",
"G. c #E5D8A9",
"H. c #F9D1AF",
"J. c #E6C7B5",
"K. c #F0CDBA",
"L. c #E9DAB6",
"P. c #F2D5BD",
"I. c #FFEDA5",
"U. c #FEEBAB",
"Y. c #FFFFAC",
"T. c #E4E0BD",
"R. c #F4E2BA",
"E. c #FFF6B7",
"W. c #FFFFB3",
"Q. c #FFFDBC",
"!. c #C9C7C2",
"~. c #D6CBC2",
"^. c #CBD2C4",
"/. c #D4D2C2",
"(. c #DBD4C5",
"). c #DAD9C7",
"_. c #DBD9CA",
"`. c #DDD9D8",
"'. c #E6CEC4",
"]. c #E6D7C8",
"[. c #E3DCCC",
"{. c #E9DDD3",
"}. c #F9DDD2",
"|. c #E8E8C7",
" X c #F2E9C0",
".X c #FCF4CE",
"XX c #E4E3D4",
"oX c #EBE3D6",
"OX c #E5E9D5",
"+X c #EAEAD5",
"@X c #E3E5DB",
"#X c #EAE6DA",
"$X c #ECECDB",
"%X c #F9E3D7",
"&X c #F1E9D5",
"*X c #F1E3DA",
"=X c #F2ECDC",
"-X c #EFF1DE",
";X c #FEF4D2",
":X c #FEFCD5",
">X c #F7F2DA",
",X c #F4F3DD",
"<X c #FEFBDE",
"1X c #EBEDE2",
"2X c #F5EDE4",
"3X c #F9ECE4",
"4X c #F4EEE8",
"5X c #EFF0E1",
"6X c #EDF2EB",
"7X c #F4F4E4",
"8X c #FAF4E5",
"9X c #F6F8E5",
"0X c #FCFBE5",
"qX c #F5F5EA",
"wX c #FAF5EA",
"eX c #F6F8E9",
"rX c #FDFBEC",
"tX c #FDF7F4",
"yX c #F7FAF2",
"uX c #FEFDF3",
"iX c #FFFEF9",
/* pixels */
". w . w o o . . . . o = = . . . . . . . . . . . w . w . . . o o o . . . . . . o o w . w o o = . . o w . w . . . o . o . . = = . ",
"= . = o o w . w . . . o o . w . w o o w . w o = . = . . . . . o o w . w . . . o o . = . = o . . . = . = o . . . . o . o . . o o ",
". = o o . . = . = . . . . = . = o o = . = . = . = . . . . . . . = . = . . . . . . . . = . . . . . . = o o . . w . w o . . o o o ",
". . . . . . . = . = . . = . = . o o . = . . . = o o . . . . . . . = o o o w . w . . . o o o . . . . . . . . . . = . = . w . w . ",
"o o w . w . o . = . . . . = . . . . . . . . . . o o . . w . w . . . . o = . = . . . . . o o o . w . w o . . . o o = . = o = . = ",
"= o o = . = . o . = . . . . . . . w . w o o o . . . . o o = . = . . . = . = o . . w . w . o o = . = o . o . . . o o = . . . = . ",
". . o o w . w . . . . . w . w . . . = . = o . . w . w o o . = . = o o . = o o . o o = . = . o . = . . w . w . . . o o . . . o = ",
". . . . . = . . . o . o . w . o . . o = . o . = . = o o . . . = . o . . . . . . . o o = . . . . . . . . = . = . . . . w . w o . ",
". w . . . . w . o . o . . . o . o . o o . . . . = . . . . . . o o w . w . . . . . . o o . . . w . w . . . = . o . o = . = o . w ",
"= . = o . . . o . o . w . w . o . . w * /.*.c.| . . . w . w . . = . = . . o o o X 1 s y . w . . w . o . . . o . o . . = . . . . ",
". = . o o . . . o . = . = o . . . . X A B u.K b $ . = . = o o o . = . . o w . w . O ; < = . = . . o w . w o . w . w . . . . . . ",
". . . o w . w . . . . w o . . o . o f F <X:XQ.! p . . = . . o o o . . o o o = . e Y.Q.E.o = . . . = . = . . o . = . = . o o o . ",
"w . . = . = . . . o o o . . w . w o B.w.rXv.V d.2 > o o o . w . w o . o o . . = R.:.J.<X2 . . . . . = . . . . . . = . = o o w . ",
". . w . w . . . . o o . . = . = . o !.!.{.z R l ^ - o o . = . = o o . . w . w ].9 C q }.6 . . . . o o w . w . . . . = . o = . = ",
"o o . = . . . w . w . . w . w o o . /.m.r.2.D.1.k n # . = . = . . . . = . = F z E l.2.V.. . w . w . o o = . = . . . o o . . = . ",
". o w o . . . . = . = . . = o o . . * =.~.@.D.f.U U r . . = . . . . . . = o 2.C s.f.:.v.. = . = . . . o o = . = . . . . . . . . ",
". . o o . . . . . = . . o o o . . . o r.~.' H.6.0.c > . = . o . . . . . . . V 8.6.F.H Z = . = o w . w . o o = . . . w . w o o . ",
". . . . . . . o o o . . o o . . . . . `.;.w.4.0.j.P Y . . o . o w . w . o F I F.h.9.X.g . = . o . = . = . . . = . . . = . = o o ",
". w . w . . . . o o o . w . w . . . . + ;.C.] H.0.5.m . . . o . . = . = o H 5.6.h.R G.i = . . . o o = . . . . . . . . . = . o o ",
"= . = o o o w . w o o o . = . = . . . . @X*.e.4.F.7.v 1 . . . . . . = . o H s.7.9.:.#.. . . . . o o o . . . o w . w o . o . . . ",
". w o o o = . = . . w . w . w . w . . . = ;.V.2.D.7.T b . w . . . . o o & E a.l.:.#.@ o . . . . w . w . . o = . = . . o . o . . ",
". o o o w . w . . . . = . = . = . . o = . o.*.V.2.g.Q <.= . = . . . w . <.W s.1.R.. w . w o . . . = . = o o . = . . . . o . o . ",
"w o o . . = o o o . . . w . o o o . . . = o M.n.e.D.5.k.. = . = . = . = >.1.l.<.. = . = o . . . . . = . = o . . . w . w . o w . ",
". . . . . o o w . w . . . o o o . . . . o o i &.t.3.g.,.. . = . o . = d >.g.1.s . . = . . w . w o o . = . . . . = . = . . = . = ",
". w . w . o o . = . = . o o o . . . . w . w o y.h +XS.4.A.o D OXM. .&.'.4.9.P.. . . . . . . = . = . . . = o o = . = . . = . = . ",
"o o = . = . . . . w . w o o w . w o = . = . . . | d P.e.~.tXrXuXrXwXtX'.2.K.. w . . . . . o o = . . . o o o . . = o . o . = . o ",
"o o o w . . . . . . = . . = . = o o . = . . . . @X5 '.%X3XtX7X7X,X0XwX3X%X'.= . = . . . . o o . . . . o o . . = o . o . . . . . ",
". o o o . . . . . . o o w . w o o . . . o o o a } %.tXwXwX7XeX7X>X7XwX3XwXwX. = . = . . . . . . . . w . w . . o . o . w . w . . ",
". w . w . . . w . w . o . = . . w . w o o o = h _ rXwXwX4XuXrX,X,XrXwXtX3X8XiX. = . o . w . w . . o o = . = . . o . . . = . = . ",
". . = . = . o o = . = . o o o . . = . = o = . o.[.+X7XiXtX) ).rX0X_ !.yXwX7XrX... o o = . = o o . . o o = . = . . . . o o = . = ",
". . . w . w o o . w . . . w . w . . = . . . Z -.>X<X9XqX@X) /.7X7X[ r.yXrX0X,XuX. . = . = . o o w . w o o = . . w . w o o . = . ",
". . . . = . o . . . . . = . = . . . . . . . $.{.&X>X-X5X#XiXN   7 tXtX#X+X9X,XrXM.. . = . . . = . = . . o o = o o = . = . . . = ",
". w . . o o . w . w o o . = . o o o . . . B w.=X=X&Xm.~.V.{.(.4 w.wXV.m.V.[.8X8XiX. = . o . . . = . . . . . . . o o = . . o . o ",
"= . = . . . = . = o o . . . o o o w . w . +._.oX2X8X].C.].*X8X{.wX*X].].C.&X8XwXuX6 . o . . . . o o o . . w . w . o o . o . o . ",
". = . . . w . w o o . . . . o o . . = . a +.=X#X8X8X8XrX3X*XuXw.3X=X3X3X8XrX=X7X4XtXo . . w . w o o . . = . = . . . . o w . w . ",
". o o o . . = o o . . . w . w . . . . = ^.n.#X2XwXrX,X&XwXiX[.8 n.rXrXoX8X8XrXwXwXtX. . . o = . = . . = . = o o . . . = . = . . ",
". . o o o w . . . . . = . = . . o o o . *.).$X7XwX=XrX).+.O._ XX+.[ O.).rX=XrX7XwXiXZ . w o o = . = . . = o o . . . = . = . . . ",
". w . w o o . o o o w . w o . . . o o o $.+X$XwX7XuX=XrXXX_.rX0X0XXX#X=X7X7X0X7X1XiX^.= . . . . = . . o o w . w . . . = . o . o ",
"o . = . = o . w o . . = o . o . w . w o *.$X$X0XwX0X7XwXrXyXeX7X0X7XrX9X0XrX7X7X7XiX1Xo o o . . . . . o = . = . . o o o . . o . ",
"o . . w . w . . . . w . . o . . . = . = &.,XrX7XwX7XwX$XeXqX7X9X7X7X7X7X-X7X7XeXrX7XyX. . o o . . . . . . = . . . . o . o w . w ",
". . . . = . . . o . o . w . w . . . w .  .0X7XwXwXwX7X_.eXwX0X7X7X7XrXXXXXrXwX7XwX7XqX. w . w . . o . o . . . . . w . w o . = . ",
"o . . o . w . o . o . . . = . = . o o o Z.,X,X#XrXwX+X/.rXeX7X9X7X7X0XXX_.rX7X=X$XwXwX. . = . = o . o . w . w o = . = . . . o = ",
". w o . o . o . o . . . . . w . o o o . XX8X=X[.rXwX[.B.uXqX7X0XwX7XrXXXN.wX8XwXB.uXtX. . . = . . o . = . = o . . = . . . o . o ",
"= . = o . . w . w . w . w . . . o o . w Z.8X=XB.rXrX/.N.iXqX7X0X7X0XrXXX-.uXwX[.o.uX$Xw o . o . . . = . = . . o . o . . o . o . ",
". = . . . = . = . . . = . = o . . . = . J 7Xb.n.rXrXN.B.iXqX7X9X7X7XwX$X*.wXuXt.e uXb.o . o . o . . . = o . . . o . w . w o . . ",
". o o o w . w . . . . . w . w o . w . w o $Xt.=.0XrX-.).tXqX7X7X0X7XeXeX$.@XeXr $ rX% o . . o . o . = o . o w . w . . = . = . . ",
". . o o . = . . o o o . . = . o o . = o o OX|.+.0X7XO.XXrXrX7X9X7XrXeX7X+.@Xh . b rX. . . . . o . . . . o = . = . . . . = . o . ",
"w w . o o o . o o o . . . . w o o . . . . S c.c.rX7X` $XeXrX7XeXeX7X7XuX+./.o.. $X. . o . o w . w . . . . . = . . . . o o o . w ",
"= . . . w . w . . . . . . . . . . o o o . . u.X.(.%.@.rX7XrX6XyXeXwXwXrX/.` A.n.. . o . o = . = o o . . . . . . . . . . . . = . ",
". . o = . = . . . w . w . o . . w w o . . . . B 0 { ,X,X,X7XqXqXeXuX2X7XrXw.N . . . . o = . = . w . w . . w . w . . . o . = . = ",
". . . . = o . . = . = . o . . . . . = . . o . A T.&X8X8X>X0X=XrXeX$XuX7X$XrX8Xo . o . . . = . = . = o . = . = . . . o . o . = . ",
". . . . o o o w . w . o . . . . . = . = . . o p.G.R.L.L. X.X0XrXrXrX:X:X.X;X;X Xp . o . . . . . = . . = . = o w . w . o . . . . ",
"o w . w . o o . = . . . w . w o o . = . : Y.W.Q.E.U.I.I.U.p.w.%.q.3./ x.W.W.Y.Y.W.W.i.. w . o o o . . . = o . . = . = . . . o o ",
". . = . = . . . . . . = . = o o . . . . J M Y U U G m x t . = . . . y j M L ~ ^ ( ( z.= . = o o . . . = o . . . . = . = . w . w ",
"= . o = . = . . . . . . = o o . . . . & > r , r & , , > > u , : 2 < < t 3 ; 2 ; ; # X . = . = . . . o . . . . o o o = . o . = . ",
". . . o = . . w . w o . o o . . . . . o = . = . . . . . . o . o . . . . . o . w . w . . . = . . . . . w . w . . o o o . . o . = ",
". . . . o o . o = . = . . w . w . . . . . = . . . w . w o . o w . w o . . . = . = . o . o . = . . . . . = . = . . o w . w . . . ",
"w . w . . . . o o = . . = . = . o o o . = . . . = . = . . o = . = o . o . = . = . . . o o . . . . . . . . = . . . = . = . . . . ",
". = . . . . . . . . . = . = . . . . o o . . . = . = o . . . . = . . o . . . = . . . . w . w . . . w . w . . . . = . = . o o w . ",
". . . . . w . w . . . . = . . . . w . w . . . . = o . . . . . . . . . . . . . o . o = . = . . . = . = . . . o o . = . . . = . = ",
"o . . . = . = . . . . = o o . . . . = . = . o o o . . . . . . . w . w . . . o . o . . = . . . = . = . . . o . o . . o o o . = . ",
". . . = . = . . . . . . o w . w . . o = . = o o . . o w . w . . . = . = . . . o . . . . . . . . = . . . o . w . w . . . o o . o ",
". . . . = . . . . w . w . o = . = o o o = . . . . o o o = . = . . . = . = . . . . o o o w . w o o . . . . o . = . = . w . w . . ",
". . . = . . . . . o = . = . o = . o o . . . . . . o o . . = . o . . . = . . . . w . w . . = . = . . . w . w . o = . . . = . = . "
};
